%TF.GenerationSoftware,KiCad,Pcbnew,7.0.9*%
%TF.CreationDate,2023-12-12T13:48:37+01:00*%
%TF.ProjectId,DTimponator-badge,4454696d-706f-46e6-9174-6f722d626164,2.1*%
%TF.SameCoordinates,Original*%
%TF.FileFunction,Legend,Bot*%
%TF.FilePolarity,Positive*%
%FSLAX46Y46*%
G04 Gerber Fmt 4.6, Leading zero omitted, Abs format (unit mm)*
G04 Created by KiCad (PCBNEW 7.0.9) date 2023-12-12 13:48:37*
%MOMM*%
%LPD*%
G01*
G04 APERTURE LIST*
G04 Aperture macros list*
%AMRoundRect*
0 Rectangle with rounded corners*
0 $1 Rounding radius*
0 $2 $3 $4 $5 $6 $7 $8 $9 X,Y pos of 4 corners*
0 Add a 4 corners polygon primitive as box body*
4,1,4,$2,$3,$4,$5,$6,$7,$8,$9,$2,$3,0*
0 Add four circle primitives for the rounded corners*
1,1,$1+$1,$2,$3*
1,1,$1+$1,$4,$5*
1,1,$1+$1,$6,$7*
1,1,$1+$1,$8,$9*
0 Add four rect primitives between the rounded corners*
20,1,$1+$1,$2,$3,$4,$5,0*
20,1,$1+$1,$4,$5,$6,$7,0*
20,1,$1+$1,$6,$7,$8,$9,0*
20,1,$1+$1,$8,$9,$2,$3,0*%
G04 Aperture macros list end*
%ADD10C,2.000000*%
%ADD11C,0.300000*%
%ADD12C,0.150000*%
%ADD13C,0.120000*%
%ADD14C,2.000000*%
%ADD15C,1.700000*%
%ADD16RoundRect,0.250000X0.450000X-0.350000X0.450000X0.350000X-0.450000X0.350000X-0.450000X-0.350000X0*%
%ADD17R,1.700000X1.700000*%
%ADD18O,1.700000X1.700000*%
%ADD19RoundRect,0.250000X0.650000X-0.412500X0.650000X0.412500X-0.650000X0.412500X-0.650000X-0.412500X0*%
%ADD20R,5.000000X5.000000*%
%ADD21R,4.000000X4.000000*%
%ADD22RoundRect,0.250000X-0.350000X-0.450000X0.350000X-0.450000X0.350000X0.450000X-0.350000X0.450000X0*%
%ADD23RoundRect,0.250000X0.350000X0.450000X-0.350000X0.450000X-0.350000X-0.450000X0.350000X-0.450000X0*%
%ADD24R,1.700000X0.650000*%
%ADD25RoundRect,0.100000X0.100000X-0.637500X0.100000X0.637500X-0.100000X0.637500X-0.100000X-0.637500X0*%
%ADD26RoundRect,0.250000X-0.450000X0.350000X-0.450000X-0.350000X0.450000X-0.350000X0.450000X0.350000X0*%
%ADD27RoundRect,0.100000X-0.100000X0.637500X-0.100000X-0.637500X0.100000X-0.637500X0.100000X0.637500X0*%
G04 APERTURE END LIST*
D10*
X83820000Y-40640000D02*
X124460000Y-40640000D01*
X124460000Y-45720000D01*
X83820000Y-45720000D01*
X83820000Y-40640000D01*
D11*
X120049522Y-43042019D02*
X119678094Y-43137257D01*
X119678094Y-43137257D02*
X119554284Y-43232495D01*
X119554284Y-43232495D02*
X119430475Y-43422971D01*
X119430475Y-43422971D02*
X119430475Y-43708685D01*
X119430475Y-43708685D02*
X119554284Y-43899161D01*
X119554284Y-43899161D02*
X119678094Y-43994400D01*
X119678094Y-43994400D02*
X119925713Y-44089638D01*
X119925713Y-44089638D02*
X120916189Y-44089638D01*
X120916189Y-44089638D02*
X120916189Y-42089638D01*
X120916189Y-42089638D02*
X120049522Y-42089638D01*
X120049522Y-42089638D02*
X119801903Y-42184876D01*
X119801903Y-42184876D02*
X119678094Y-42280114D01*
X119678094Y-42280114D02*
X119554284Y-42470590D01*
X119554284Y-42470590D02*
X119554284Y-42661066D01*
X119554284Y-42661066D02*
X119678094Y-42851542D01*
X119678094Y-42851542D02*
X119801903Y-42946780D01*
X119801903Y-42946780D02*
X120049522Y-43042019D01*
X120049522Y-43042019D02*
X120916189Y-43042019D01*
X117201903Y-42756304D02*
X117201903Y-44089638D01*
X118316189Y-42756304D02*
X118316189Y-43803923D01*
X118316189Y-43803923D02*
X118192379Y-43994400D01*
X118192379Y-43994400D02*
X117944760Y-44089638D01*
X117944760Y-44089638D02*
X117573332Y-44089638D01*
X117573332Y-44089638D02*
X117325713Y-43994400D01*
X117325713Y-43994400D02*
X117201903Y-43899161D01*
X116335236Y-42756304D02*
X115344760Y-42756304D01*
X115963808Y-42089638D02*
X115963808Y-43803923D01*
X115963808Y-43803923D02*
X115839998Y-43994400D01*
X115839998Y-43994400D02*
X115592379Y-44089638D01*
X115592379Y-44089638D02*
X115344760Y-44089638D01*
X114849522Y-42756304D02*
X113859046Y-42756304D01*
X114478094Y-42089638D02*
X114478094Y-43803923D01*
X114478094Y-43803923D02*
X114354284Y-43994400D01*
X114354284Y-43994400D02*
X114106665Y-44089638D01*
X114106665Y-44089638D02*
X113859046Y-44089638D01*
X112620951Y-44089638D02*
X112868570Y-43994400D01*
X112868570Y-43994400D02*
X112992380Y-43899161D01*
X112992380Y-43899161D02*
X113116189Y-43708685D01*
X113116189Y-43708685D02*
X113116189Y-43137257D01*
X113116189Y-43137257D02*
X112992380Y-42946780D01*
X112992380Y-42946780D02*
X112868570Y-42851542D01*
X112868570Y-42851542D02*
X112620951Y-42756304D01*
X112620951Y-42756304D02*
X112249523Y-42756304D01*
X112249523Y-42756304D02*
X112001904Y-42851542D01*
X112001904Y-42851542D02*
X111878094Y-42946780D01*
X111878094Y-42946780D02*
X111754285Y-43137257D01*
X111754285Y-43137257D02*
X111754285Y-43708685D01*
X111754285Y-43708685D02*
X111878094Y-43899161D01*
X111878094Y-43899161D02*
X112001904Y-43994400D01*
X112001904Y-43994400D02*
X112249523Y-44089638D01*
X112249523Y-44089638D02*
X112620951Y-44089638D01*
X110639999Y-42756304D02*
X110639999Y-44089638D01*
X110639999Y-42946780D02*
X110516189Y-42851542D01*
X110516189Y-42851542D02*
X110268570Y-42756304D01*
X110268570Y-42756304D02*
X109897142Y-42756304D01*
X109897142Y-42756304D02*
X109649523Y-42851542D01*
X109649523Y-42851542D02*
X109525713Y-43042019D01*
X109525713Y-43042019D02*
X109525713Y-44089638D01*
X108287618Y-42756304D02*
X108287618Y-44089638D01*
X108287618Y-42946780D02*
X108163808Y-42851542D01*
X108163808Y-42851542D02*
X107916189Y-42756304D01*
X107916189Y-42756304D02*
X107544761Y-42756304D01*
X107544761Y-42756304D02*
X107297142Y-42851542D01*
X107297142Y-42851542D02*
X107173332Y-43042019D01*
X107173332Y-43042019D02*
X107173332Y-44089638D01*
X104820951Y-44089638D02*
X104820951Y-43042019D01*
X104820951Y-43042019D02*
X104944761Y-42851542D01*
X104944761Y-42851542D02*
X105192380Y-42756304D01*
X105192380Y-42756304D02*
X105687618Y-42756304D01*
X105687618Y-42756304D02*
X105935237Y-42851542D01*
X104820951Y-43994400D02*
X105068570Y-44089638D01*
X105068570Y-44089638D02*
X105687618Y-44089638D01*
X105687618Y-44089638D02*
X105935237Y-43994400D01*
X105935237Y-43994400D02*
X106059046Y-43803923D01*
X106059046Y-43803923D02*
X106059046Y-43613447D01*
X106059046Y-43613447D02*
X105935237Y-43422971D01*
X105935237Y-43422971D02*
X105687618Y-43327733D01*
X105687618Y-43327733D02*
X105068570Y-43327733D01*
X105068570Y-43327733D02*
X104820951Y-43232495D01*
X105439999Y-42280114D02*
X105687618Y-42184876D01*
X105687618Y-42184876D02*
X105811427Y-41994400D01*
X105811427Y-41994400D02*
X105687618Y-41803923D01*
X105687618Y-41803923D02*
X105439999Y-41708685D01*
X105439999Y-41708685D02*
X105192380Y-41803923D01*
X105192380Y-41803923D02*
X105068570Y-41994400D01*
X105068570Y-41994400D02*
X105192380Y-42184876D01*
X105192380Y-42184876D02*
X105439999Y-42280114D01*
X103211427Y-44089638D02*
X103459046Y-43994400D01*
X103459046Y-43994400D02*
X103582856Y-43803923D01*
X103582856Y-43803923D02*
X103582856Y-42089638D01*
X102592379Y-42756304D02*
X101601903Y-42756304D01*
X102220951Y-44089638D02*
X102220951Y-42375352D01*
X102220951Y-42375352D02*
X102097141Y-42184876D01*
X102097141Y-42184876D02*
X101849522Y-42089638D01*
X101849522Y-42089638D02*
X101601903Y-42089638D01*
X99744761Y-43994400D02*
X99992380Y-44089638D01*
X99992380Y-44089638D02*
X100487618Y-44089638D01*
X100487618Y-44089638D02*
X100735237Y-43994400D01*
X100735237Y-43994400D02*
X100859046Y-43803923D01*
X100859046Y-43803923D02*
X100859046Y-43042019D01*
X100859046Y-43042019D02*
X100735237Y-42851542D01*
X100735237Y-42851542D02*
X100487618Y-42756304D01*
X100487618Y-42756304D02*
X99992380Y-42756304D01*
X99992380Y-42756304D02*
X99744761Y-42851542D01*
X99744761Y-42851542D02*
X99620951Y-43042019D01*
X99620951Y-43042019D02*
X99620951Y-43232495D01*
X99620951Y-43232495D02*
X100859046Y-43422971D01*
X98630475Y-43994400D02*
X98382856Y-44089638D01*
X98382856Y-44089638D02*
X97887618Y-44089638D01*
X97887618Y-44089638D02*
X97639999Y-43994400D01*
X97639999Y-43994400D02*
X97516190Y-43803923D01*
X97516190Y-43803923D02*
X97516190Y-43708685D01*
X97516190Y-43708685D02*
X97639999Y-43518209D01*
X97639999Y-43518209D02*
X97887618Y-43422971D01*
X97887618Y-43422971D02*
X98259047Y-43422971D01*
X98259047Y-43422971D02*
X98506666Y-43327733D01*
X98506666Y-43327733D02*
X98630475Y-43137257D01*
X98630475Y-43137257D02*
X98630475Y-43042019D01*
X98630475Y-43042019D02*
X98506666Y-42851542D01*
X98506666Y-42851542D02*
X98259047Y-42756304D01*
X98259047Y-42756304D02*
X97887618Y-42756304D01*
X97887618Y-42756304D02*
X97639999Y-42851542D01*
X96773332Y-42756304D02*
X95782856Y-42756304D01*
X96401904Y-42089638D02*
X96401904Y-43803923D01*
X96401904Y-43803923D02*
X96278094Y-43994400D01*
X96278094Y-43994400D02*
X96030475Y-44089638D01*
X96030475Y-44089638D02*
X95782856Y-44089638D01*
X93925714Y-43994400D02*
X94173333Y-44089638D01*
X94173333Y-44089638D02*
X94668571Y-44089638D01*
X94668571Y-44089638D02*
X94916190Y-43994400D01*
X94916190Y-43994400D02*
X95039999Y-43803923D01*
X95039999Y-43803923D02*
X95039999Y-43042019D01*
X95039999Y-43042019D02*
X94916190Y-42851542D01*
X94916190Y-42851542D02*
X94668571Y-42756304D01*
X94668571Y-42756304D02*
X94173333Y-42756304D01*
X94173333Y-42756304D02*
X93925714Y-42851542D01*
X93925714Y-42851542D02*
X93801904Y-43042019D01*
X93801904Y-43042019D02*
X93801904Y-43232495D01*
X93801904Y-43232495D02*
X95039999Y-43422971D01*
X93059047Y-42756304D02*
X92068571Y-42756304D01*
X92687619Y-44089638D02*
X92687619Y-42375352D01*
X92687619Y-42375352D02*
X92563809Y-42184876D01*
X92563809Y-42184876D02*
X92316190Y-42089638D01*
X92316190Y-42089638D02*
X92068571Y-42089638D01*
X90211429Y-43994400D02*
X90459048Y-44089638D01*
X90459048Y-44089638D02*
X90954286Y-44089638D01*
X90954286Y-44089638D02*
X91201905Y-43994400D01*
X91201905Y-43994400D02*
X91325714Y-43803923D01*
X91325714Y-43803923D02*
X91325714Y-43042019D01*
X91325714Y-43042019D02*
X91201905Y-42851542D01*
X91201905Y-42851542D02*
X90954286Y-42756304D01*
X90954286Y-42756304D02*
X90459048Y-42756304D01*
X90459048Y-42756304D02*
X90211429Y-42851542D01*
X90211429Y-42851542D02*
X90087619Y-43042019D01*
X90087619Y-43042019D02*
X90087619Y-43232495D01*
X90087619Y-43232495D02*
X91325714Y-43422971D01*
X88601905Y-44089638D02*
X88849524Y-43994400D01*
X88849524Y-43994400D02*
X88973334Y-43803923D01*
X88973334Y-43803923D02*
X88973334Y-42089638D01*
X87982857Y-42756304D02*
X86992381Y-42756304D01*
X87611429Y-42089638D02*
X87611429Y-43803923D01*
X87611429Y-43803923D02*
X87487619Y-43994400D01*
X87487619Y-43994400D02*
X87240000Y-44089638D01*
X87240000Y-44089638D02*
X86992381Y-44089638D01*
D12*
X99912611Y-76806576D02*
X99762082Y-76802463D01*
X99762082Y-76802463D02*
X99538346Y-76721030D01*
X99538346Y-76721030D02*
X99465138Y-76643709D01*
X99465138Y-76643709D02*
X99436678Y-76582675D01*
X99436678Y-76582675D02*
X99424504Y-76476894D01*
X99424504Y-76476894D02*
X99457077Y-76387400D01*
X99457077Y-76387400D02*
X99534398Y-76314192D01*
X99534398Y-76314192D02*
X99595432Y-76285731D01*
X99595432Y-76285731D02*
X99701213Y-76273557D01*
X99701213Y-76273557D02*
X99896489Y-76293957D01*
X99896489Y-76293957D02*
X100002270Y-76281783D01*
X100002270Y-76281783D02*
X100063304Y-76253322D01*
X100063304Y-76253322D02*
X100140624Y-76180114D01*
X100140624Y-76180114D02*
X100173198Y-76090620D01*
X100173198Y-76090620D02*
X100161024Y-75984839D01*
X100161024Y-75984839D02*
X100132563Y-75923805D01*
X100132563Y-75923805D02*
X100059355Y-75846484D01*
X100059355Y-75846484D02*
X99835619Y-75765051D01*
X99835619Y-75765051D02*
X99685090Y-75760938D01*
X99388146Y-75602184D02*
X98822390Y-76460443D01*
X98822390Y-76460443D02*
X98887701Y-75724087D01*
X98887701Y-75724087D02*
X98464412Y-76330150D01*
X98464412Y-76330150D02*
X98582695Y-75309024D01*
X97390477Y-75939270D02*
X97927445Y-76134710D01*
X97658961Y-76036990D02*
X98000981Y-75097297D01*
X98000981Y-75097297D02*
X98041616Y-75264112D01*
X98041616Y-75264112D02*
X98098537Y-75386180D01*
X98098537Y-75386180D02*
X98171745Y-75463501D01*
X84146819Y-68921333D02*
X83670628Y-68588000D01*
X84146819Y-68349905D02*
X83146819Y-68349905D01*
X83146819Y-68349905D02*
X83146819Y-68730857D01*
X83146819Y-68730857D02*
X83194438Y-68826095D01*
X83194438Y-68826095D02*
X83242057Y-68873714D01*
X83242057Y-68873714D02*
X83337295Y-68921333D01*
X83337295Y-68921333D02*
X83480152Y-68921333D01*
X83480152Y-68921333D02*
X83575390Y-68873714D01*
X83575390Y-68873714D02*
X83623009Y-68826095D01*
X83623009Y-68826095D02*
X83670628Y-68730857D01*
X83670628Y-68730857D02*
X83670628Y-68349905D01*
X84146819Y-69397524D02*
X84146819Y-69588000D01*
X84146819Y-69588000D02*
X84099200Y-69683238D01*
X84099200Y-69683238D02*
X84051580Y-69730857D01*
X84051580Y-69730857D02*
X83908723Y-69826095D01*
X83908723Y-69826095D02*
X83718247Y-69873714D01*
X83718247Y-69873714D02*
X83337295Y-69873714D01*
X83337295Y-69873714D02*
X83242057Y-69826095D01*
X83242057Y-69826095D02*
X83194438Y-69778476D01*
X83194438Y-69778476D02*
X83146819Y-69683238D01*
X83146819Y-69683238D02*
X83146819Y-69492762D01*
X83146819Y-69492762D02*
X83194438Y-69397524D01*
X83194438Y-69397524D02*
X83242057Y-69349905D01*
X83242057Y-69349905D02*
X83337295Y-69302286D01*
X83337295Y-69302286D02*
X83575390Y-69302286D01*
X83575390Y-69302286D02*
X83670628Y-69349905D01*
X83670628Y-69349905D02*
X83718247Y-69397524D01*
X83718247Y-69397524D02*
X83765866Y-69492762D01*
X83765866Y-69492762D02*
X83765866Y-69683238D01*
X83765866Y-69683238D02*
X83718247Y-69778476D01*
X83718247Y-69778476D02*
X83670628Y-69826095D01*
X83670628Y-69826095D02*
X83575390Y-69873714D01*
X77798333Y-55619819D02*
X77798333Y-56334104D01*
X77798333Y-56334104D02*
X77845952Y-56476961D01*
X77845952Y-56476961D02*
X77941190Y-56572200D01*
X77941190Y-56572200D02*
X78084047Y-56619819D01*
X78084047Y-56619819D02*
X78179285Y-56619819D01*
X76798333Y-56619819D02*
X77369761Y-56619819D01*
X77084047Y-56619819D02*
X77084047Y-55619819D01*
X77084047Y-55619819D02*
X77179285Y-55762676D01*
X77179285Y-55762676D02*
X77274523Y-55857914D01*
X77274523Y-55857914D02*
X77369761Y-55905533D01*
X91363580Y-73493333D02*
X91411200Y-73445714D01*
X91411200Y-73445714D02*
X91458819Y-73302857D01*
X91458819Y-73302857D02*
X91458819Y-73207619D01*
X91458819Y-73207619D02*
X91411200Y-73064762D01*
X91411200Y-73064762D02*
X91315961Y-72969524D01*
X91315961Y-72969524D02*
X91220723Y-72921905D01*
X91220723Y-72921905D02*
X91030247Y-72874286D01*
X91030247Y-72874286D02*
X90887390Y-72874286D01*
X90887390Y-72874286D02*
X90696914Y-72921905D01*
X90696914Y-72921905D02*
X90601676Y-72969524D01*
X90601676Y-72969524D02*
X90506438Y-73064762D01*
X90506438Y-73064762D02*
X90458819Y-73207619D01*
X90458819Y-73207619D02*
X90458819Y-73302857D01*
X90458819Y-73302857D02*
X90506438Y-73445714D01*
X90506438Y-73445714D02*
X90554057Y-73493333D01*
X91458819Y-74445714D02*
X91458819Y-73874286D01*
X91458819Y-74160000D02*
X90458819Y-74160000D01*
X90458819Y-74160000D02*
X90601676Y-74064762D01*
X90601676Y-74064762D02*
X90696914Y-73969524D01*
X90696914Y-73969524D02*
X90744533Y-73874286D01*
X106541009Y-61194285D02*
X106588628Y-61337142D01*
X106588628Y-61337142D02*
X106636247Y-61384761D01*
X106636247Y-61384761D02*
X106731485Y-61432380D01*
X106731485Y-61432380D02*
X106874342Y-61432380D01*
X106874342Y-61432380D02*
X106969580Y-61384761D01*
X106969580Y-61384761D02*
X107017200Y-61337142D01*
X107017200Y-61337142D02*
X107064819Y-61241904D01*
X107064819Y-61241904D02*
X107064819Y-60860952D01*
X107064819Y-60860952D02*
X106064819Y-60860952D01*
X106064819Y-60860952D02*
X106064819Y-61194285D01*
X106064819Y-61194285D02*
X106112438Y-61289523D01*
X106112438Y-61289523D02*
X106160057Y-61337142D01*
X106160057Y-61337142D02*
X106255295Y-61384761D01*
X106255295Y-61384761D02*
X106350533Y-61384761D01*
X106350533Y-61384761D02*
X106445771Y-61337142D01*
X106445771Y-61337142D02*
X106493390Y-61289523D01*
X106493390Y-61289523D02*
X106541009Y-61194285D01*
X106541009Y-61194285D02*
X106541009Y-60860952D01*
X106064819Y-61718095D02*
X106064819Y-62289523D01*
X107064819Y-62003809D02*
X106064819Y-62003809D01*
X107064819Y-63146666D02*
X107064819Y-62575238D01*
X107064819Y-62860952D02*
X106064819Y-62860952D01*
X106064819Y-62860952D02*
X106207676Y-62765714D01*
X106207676Y-62765714D02*
X106302914Y-62670476D01*
X106302914Y-62670476D02*
X106350533Y-62575238D01*
X87240857Y-71954819D02*
X87574190Y-71478628D01*
X87812285Y-71954819D02*
X87812285Y-70954819D01*
X87812285Y-70954819D02*
X87431333Y-70954819D01*
X87431333Y-70954819D02*
X87336095Y-71002438D01*
X87336095Y-71002438D02*
X87288476Y-71050057D01*
X87288476Y-71050057D02*
X87240857Y-71145295D01*
X87240857Y-71145295D02*
X87240857Y-71288152D01*
X87240857Y-71288152D02*
X87288476Y-71383390D01*
X87288476Y-71383390D02*
X87336095Y-71431009D01*
X87336095Y-71431009D02*
X87431333Y-71478628D01*
X87431333Y-71478628D02*
X87812285Y-71478628D01*
X86288476Y-71954819D02*
X86859904Y-71954819D01*
X86574190Y-71954819D02*
X86574190Y-70954819D01*
X86574190Y-70954819D02*
X86669428Y-71097676D01*
X86669428Y-71097676D02*
X86764666Y-71192914D01*
X86764666Y-71192914D02*
X86859904Y-71240533D01*
X85383714Y-70954819D02*
X85859904Y-70954819D01*
X85859904Y-70954819D02*
X85907523Y-71431009D01*
X85907523Y-71431009D02*
X85859904Y-71383390D01*
X85859904Y-71383390D02*
X85764666Y-71335771D01*
X85764666Y-71335771D02*
X85526571Y-71335771D01*
X85526571Y-71335771D02*
X85431333Y-71383390D01*
X85431333Y-71383390D02*
X85383714Y-71431009D01*
X85383714Y-71431009D02*
X85336095Y-71526247D01*
X85336095Y-71526247D02*
X85336095Y-71764342D01*
X85336095Y-71764342D02*
X85383714Y-71859580D01*
X85383714Y-71859580D02*
X85431333Y-71907200D01*
X85431333Y-71907200D02*
X85526571Y-71954819D01*
X85526571Y-71954819D02*
X85764666Y-71954819D01*
X85764666Y-71954819D02*
X85859904Y-71907200D01*
X85859904Y-71907200D02*
X85907523Y-71859580D01*
X112910857Y-80846819D02*
X113244190Y-80370628D01*
X113482285Y-80846819D02*
X113482285Y-79846819D01*
X113482285Y-79846819D02*
X113101333Y-79846819D01*
X113101333Y-79846819D02*
X113006095Y-79894438D01*
X113006095Y-79894438D02*
X112958476Y-79942057D01*
X112958476Y-79942057D02*
X112910857Y-80037295D01*
X112910857Y-80037295D02*
X112910857Y-80180152D01*
X112910857Y-80180152D02*
X112958476Y-80275390D01*
X112958476Y-80275390D02*
X113006095Y-80323009D01*
X113006095Y-80323009D02*
X113101333Y-80370628D01*
X113101333Y-80370628D02*
X113482285Y-80370628D01*
X111958476Y-80846819D02*
X112529904Y-80846819D01*
X112244190Y-80846819D02*
X112244190Y-79846819D01*
X112244190Y-79846819D02*
X112339428Y-79989676D01*
X112339428Y-79989676D02*
X112434666Y-80084914D01*
X112434666Y-80084914D02*
X112529904Y-80132533D01*
X111625142Y-79846819D02*
X111006095Y-79846819D01*
X111006095Y-79846819D02*
X111339428Y-80227771D01*
X111339428Y-80227771D02*
X111196571Y-80227771D01*
X111196571Y-80227771D02*
X111101333Y-80275390D01*
X111101333Y-80275390D02*
X111053714Y-80323009D01*
X111053714Y-80323009D02*
X111006095Y-80418247D01*
X111006095Y-80418247D02*
X111006095Y-80656342D01*
X111006095Y-80656342D02*
X111053714Y-80751580D01*
X111053714Y-80751580D02*
X111101333Y-80799200D01*
X111101333Y-80799200D02*
X111196571Y-80846819D01*
X111196571Y-80846819D02*
X111482285Y-80846819D01*
X111482285Y-80846819D02*
X111577523Y-80799200D01*
X111577523Y-80799200D02*
X111625142Y-80751580D01*
X93892666Y-73732819D02*
X94225999Y-73256628D01*
X94464094Y-73732819D02*
X94464094Y-72732819D01*
X94464094Y-72732819D02*
X94083142Y-72732819D01*
X94083142Y-72732819D02*
X93987904Y-72780438D01*
X93987904Y-72780438D02*
X93940285Y-72828057D01*
X93940285Y-72828057D02*
X93892666Y-72923295D01*
X93892666Y-72923295D02*
X93892666Y-73066152D01*
X93892666Y-73066152D02*
X93940285Y-73161390D01*
X93940285Y-73161390D02*
X93987904Y-73209009D01*
X93987904Y-73209009D02*
X94083142Y-73256628D01*
X94083142Y-73256628D02*
X94464094Y-73256628D01*
X93321237Y-73161390D02*
X93416475Y-73113771D01*
X93416475Y-73113771D02*
X93464094Y-73066152D01*
X93464094Y-73066152D02*
X93511713Y-72970914D01*
X93511713Y-72970914D02*
X93511713Y-72923295D01*
X93511713Y-72923295D02*
X93464094Y-72828057D01*
X93464094Y-72828057D02*
X93416475Y-72780438D01*
X93416475Y-72780438D02*
X93321237Y-72732819D01*
X93321237Y-72732819D02*
X93130761Y-72732819D01*
X93130761Y-72732819D02*
X93035523Y-72780438D01*
X93035523Y-72780438D02*
X92987904Y-72828057D01*
X92987904Y-72828057D02*
X92940285Y-72923295D01*
X92940285Y-72923295D02*
X92940285Y-72970914D01*
X92940285Y-72970914D02*
X92987904Y-73066152D01*
X92987904Y-73066152D02*
X93035523Y-73113771D01*
X93035523Y-73113771D02*
X93130761Y-73161390D01*
X93130761Y-73161390D02*
X93321237Y-73161390D01*
X93321237Y-73161390D02*
X93416475Y-73209009D01*
X93416475Y-73209009D02*
X93464094Y-73256628D01*
X93464094Y-73256628D02*
X93511713Y-73351866D01*
X93511713Y-73351866D02*
X93511713Y-73542342D01*
X93511713Y-73542342D02*
X93464094Y-73637580D01*
X93464094Y-73637580D02*
X93416475Y-73685200D01*
X93416475Y-73685200D02*
X93321237Y-73732819D01*
X93321237Y-73732819D02*
X93130761Y-73732819D01*
X93130761Y-73732819D02*
X93035523Y-73685200D01*
X93035523Y-73685200D02*
X92987904Y-73637580D01*
X92987904Y-73637580D02*
X92940285Y-73542342D01*
X92940285Y-73542342D02*
X92940285Y-73351866D01*
X92940285Y-73351866D02*
X92987904Y-73256628D01*
X92987904Y-73256628D02*
X93035523Y-73209009D01*
X93035523Y-73209009D02*
X93130761Y-73161390D01*
X109910666Y-50112819D02*
X110243999Y-49636628D01*
X110482094Y-50112819D02*
X110482094Y-49112819D01*
X110482094Y-49112819D02*
X110101142Y-49112819D01*
X110101142Y-49112819D02*
X110005904Y-49160438D01*
X110005904Y-49160438D02*
X109958285Y-49208057D01*
X109958285Y-49208057D02*
X109910666Y-49303295D01*
X109910666Y-49303295D02*
X109910666Y-49446152D01*
X109910666Y-49446152D02*
X109958285Y-49541390D01*
X109958285Y-49541390D02*
X110005904Y-49589009D01*
X110005904Y-49589009D02*
X110101142Y-49636628D01*
X110101142Y-49636628D02*
X110482094Y-49636628D01*
X109005904Y-49112819D02*
X109482094Y-49112819D01*
X109482094Y-49112819D02*
X109529713Y-49589009D01*
X109529713Y-49589009D02*
X109482094Y-49541390D01*
X109482094Y-49541390D02*
X109386856Y-49493771D01*
X109386856Y-49493771D02*
X109148761Y-49493771D01*
X109148761Y-49493771D02*
X109053523Y-49541390D01*
X109053523Y-49541390D02*
X109005904Y-49589009D01*
X109005904Y-49589009D02*
X108958285Y-49684247D01*
X108958285Y-49684247D02*
X108958285Y-49922342D01*
X108958285Y-49922342D02*
X109005904Y-50017580D01*
X109005904Y-50017580D02*
X109053523Y-50065200D01*
X109053523Y-50065200D02*
X109148761Y-50112819D01*
X109148761Y-50112819D02*
X109386856Y-50112819D01*
X109386856Y-50112819D02*
X109482094Y-50065200D01*
X109482094Y-50065200D02*
X109529713Y-50017580D01*
X112910857Y-46556819D02*
X113244190Y-46080628D01*
X113482285Y-46556819D02*
X113482285Y-45556819D01*
X113482285Y-45556819D02*
X113101333Y-45556819D01*
X113101333Y-45556819D02*
X113006095Y-45604438D01*
X113006095Y-45604438D02*
X112958476Y-45652057D01*
X112958476Y-45652057D02*
X112910857Y-45747295D01*
X112910857Y-45747295D02*
X112910857Y-45890152D01*
X112910857Y-45890152D02*
X112958476Y-45985390D01*
X112958476Y-45985390D02*
X113006095Y-46033009D01*
X113006095Y-46033009D02*
X113101333Y-46080628D01*
X113101333Y-46080628D02*
X113482285Y-46080628D01*
X111958476Y-46556819D02*
X112529904Y-46556819D01*
X112244190Y-46556819D02*
X112244190Y-45556819D01*
X112244190Y-45556819D02*
X112339428Y-45699676D01*
X112339428Y-45699676D02*
X112434666Y-45794914D01*
X112434666Y-45794914D02*
X112529904Y-45842533D01*
X111006095Y-46556819D02*
X111577523Y-46556819D01*
X111291809Y-46556819D02*
X111291809Y-45556819D01*
X111291809Y-45556819D02*
X111387047Y-45699676D01*
X111387047Y-45699676D02*
X111482285Y-45794914D01*
X111482285Y-45794914D02*
X111577523Y-45842533D01*
X106028819Y-69850095D02*
X106838342Y-69850095D01*
X106838342Y-69850095D02*
X106933580Y-69897714D01*
X106933580Y-69897714D02*
X106981200Y-69945333D01*
X106981200Y-69945333D02*
X107028819Y-70040571D01*
X107028819Y-70040571D02*
X107028819Y-70231047D01*
X107028819Y-70231047D02*
X106981200Y-70326285D01*
X106981200Y-70326285D02*
X106933580Y-70373904D01*
X106933580Y-70373904D02*
X106838342Y-70421523D01*
X106838342Y-70421523D02*
X106028819Y-70421523D01*
X106028819Y-70802476D02*
X106028819Y-71421523D01*
X106028819Y-71421523D02*
X106409771Y-71088190D01*
X106409771Y-71088190D02*
X106409771Y-71231047D01*
X106409771Y-71231047D02*
X106457390Y-71326285D01*
X106457390Y-71326285D02*
X106505009Y-71373904D01*
X106505009Y-71373904D02*
X106600247Y-71421523D01*
X106600247Y-71421523D02*
X106838342Y-71421523D01*
X106838342Y-71421523D02*
X106933580Y-71373904D01*
X106933580Y-71373904D02*
X106981200Y-71326285D01*
X106981200Y-71326285D02*
X107028819Y-71231047D01*
X107028819Y-71231047D02*
X107028819Y-70945333D01*
X107028819Y-70945333D02*
X106981200Y-70850095D01*
X106981200Y-70850095D02*
X106933580Y-70802476D01*
X88558666Y-46810819D02*
X88891999Y-46334628D01*
X89130094Y-46810819D02*
X89130094Y-45810819D01*
X89130094Y-45810819D02*
X88749142Y-45810819D01*
X88749142Y-45810819D02*
X88653904Y-45858438D01*
X88653904Y-45858438D02*
X88606285Y-45906057D01*
X88606285Y-45906057D02*
X88558666Y-46001295D01*
X88558666Y-46001295D02*
X88558666Y-46144152D01*
X88558666Y-46144152D02*
X88606285Y-46239390D01*
X88606285Y-46239390D02*
X88653904Y-46287009D01*
X88653904Y-46287009D02*
X88749142Y-46334628D01*
X88749142Y-46334628D02*
X89130094Y-46334628D01*
X88177713Y-45906057D02*
X88130094Y-45858438D01*
X88130094Y-45858438D02*
X88034856Y-45810819D01*
X88034856Y-45810819D02*
X87796761Y-45810819D01*
X87796761Y-45810819D02*
X87701523Y-45858438D01*
X87701523Y-45858438D02*
X87653904Y-45906057D01*
X87653904Y-45906057D02*
X87606285Y-46001295D01*
X87606285Y-46001295D02*
X87606285Y-46096533D01*
X87606285Y-46096533D02*
X87653904Y-46239390D01*
X87653904Y-46239390D02*
X88225332Y-46810819D01*
X88225332Y-46810819D02*
X87606285Y-46810819D01*
X107514819Y-57761333D02*
X107038628Y-57428000D01*
X107514819Y-57189905D02*
X106514819Y-57189905D01*
X106514819Y-57189905D02*
X106514819Y-57570857D01*
X106514819Y-57570857D02*
X106562438Y-57666095D01*
X106562438Y-57666095D02*
X106610057Y-57713714D01*
X106610057Y-57713714D02*
X106705295Y-57761333D01*
X106705295Y-57761333D02*
X106848152Y-57761333D01*
X106848152Y-57761333D02*
X106943390Y-57713714D01*
X106943390Y-57713714D02*
X106991009Y-57666095D01*
X106991009Y-57666095D02*
X107038628Y-57570857D01*
X107038628Y-57570857D02*
X107038628Y-57189905D01*
X106514819Y-58094667D02*
X106514819Y-58713714D01*
X106514819Y-58713714D02*
X106895771Y-58380381D01*
X106895771Y-58380381D02*
X106895771Y-58523238D01*
X106895771Y-58523238D02*
X106943390Y-58618476D01*
X106943390Y-58618476D02*
X106991009Y-58666095D01*
X106991009Y-58666095D02*
X107086247Y-58713714D01*
X107086247Y-58713714D02*
X107324342Y-58713714D01*
X107324342Y-58713714D02*
X107419580Y-58666095D01*
X107419580Y-58666095D02*
X107467200Y-58618476D01*
X107467200Y-58618476D02*
X107514819Y-58523238D01*
X107514819Y-58523238D02*
X107514819Y-58237524D01*
X107514819Y-58237524D02*
X107467200Y-58142286D01*
X107467200Y-58142286D02*
X107419580Y-58094667D01*
X116212857Y-78560819D02*
X116546190Y-78084628D01*
X116784285Y-78560819D02*
X116784285Y-77560819D01*
X116784285Y-77560819D02*
X116403333Y-77560819D01*
X116403333Y-77560819D02*
X116308095Y-77608438D01*
X116308095Y-77608438D02*
X116260476Y-77656057D01*
X116260476Y-77656057D02*
X116212857Y-77751295D01*
X116212857Y-77751295D02*
X116212857Y-77894152D01*
X116212857Y-77894152D02*
X116260476Y-77989390D01*
X116260476Y-77989390D02*
X116308095Y-78037009D01*
X116308095Y-78037009D02*
X116403333Y-78084628D01*
X116403333Y-78084628D02*
X116784285Y-78084628D01*
X115260476Y-78560819D02*
X115831904Y-78560819D01*
X115546190Y-78560819D02*
X115546190Y-77560819D01*
X115546190Y-77560819D02*
X115641428Y-77703676D01*
X115641428Y-77703676D02*
X115736666Y-77798914D01*
X115736666Y-77798914D02*
X115831904Y-77846533D01*
X114879523Y-77656057D02*
X114831904Y-77608438D01*
X114831904Y-77608438D02*
X114736666Y-77560819D01*
X114736666Y-77560819D02*
X114498571Y-77560819D01*
X114498571Y-77560819D02*
X114403333Y-77608438D01*
X114403333Y-77608438D02*
X114355714Y-77656057D01*
X114355714Y-77656057D02*
X114308095Y-77751295D01*
X114308095Y-77751295D02*
X114308095Y-77846533D01*
X114308095Y-77846533D02*
X114355714Y-77989390D01*
X114355714Y-77989390D02*
X114927142Y-78560819D01*
X114927142Y-78560819D02*
X114308095Y-78560819D01*
X89226819Y-52141333D02*
X88750628Y-51808000D01*
X89226819Y-51569905D02*
X88226819Y-51569905D01*
X88226819Y-51569905D02*
X88226819Y-51950857D01*
X88226819Y-51950857D02*
X88274438Y-52046095D01*
X88274438Y-52046095D02*
X88322057Y-52093714D01*
X88322057Y-52093714D02*
X88417295Y-52141333D01*
X88417295Y-52141333D02*
X88560152Y-52141333D01*
X88560152Y-52141333D02*
X88655390Y-52093714D01*
X88655390Y-52093714D02*
X88703009Y-52046095D01*
X88703009Y-52046095D02*
X88750628Y-51950857D01*
X88750628Y-51950857D02*
X88750628Y-51569905D01*
X89226819Y-53093714D02*
X89226819Y-52522286D01*
X89226819Y-52808000D02*
X88226819Y-52808000D01*
X88226819Y-52808000D02*
X88369676Y-52712762D01*
X88369676Y-52712762D02*
X88464914Y-52617524D01*
X88464914Y-52617524D02*
X88512533Y-52522286D01*
X96400857Y-40458819D02*
X96734190Y-39982628D01*
X96972285Y-40458819D02*
X96972285Y-39458819D01*
X96972285Y-39458819D02*
X96591333Y-39458819D01*
X96591333Y-39458819D02*
X96496095Y-39506438D01*
X96496095Y-39506438D02*
X96448476Y-39554057D01*
X96448476Y-39554057D02*
X96400857Y-39649295D01*
X96400857Y-39649295D02*
X96400857Y-39792152D01*
X96400857Y-39792152D02*
X96448476Y-39887390D01*
X96448476Y-39887390D02*
X96496095Y-39935009D01*
X96496095Y-39935009D02*
X96591333Y-39982628D01*
X96591333Y-39982628D02*
X96972285Y-39982628D01*
X95448476Y-40458819D02*
X96019904Y-40458819D01*
X95734190Y-40458819D02*
X95734190Y-39458819D01*
X95734190Y-39458819D02*
X95829428Y-39601676D01*
X95829428Y-39601676D02*
X95924666Y-39696914D01*
X95924666Y-39696914D02*
X96019904Y-39744533D01*
X95115142Y-39458819D02*
X94448476Y-39458819D01*
X94448476Y-39458819D02*
X94877047Y-40458819D01*
X108592857Y-84146819D02*
X108926190Y-83670628D01*
X109164285Y-84146819D02*
X109164285Y-83146819D01*
X109164285Y-83146819D02*
X108783333Y-83146819D01*
X108783333Y-83146819D02*
X108688095Y-83194438D01*
X108688095Y-83194438D02*
X108640476Y-83242057D01*
X108640476Y-83242057D02*
X108592857Y-83337295D01*
X108592857Y-83337295D02*
X108592857Y-83480152D01*
X108592857Y-83480152D02*
X108640476Y-83575390D01*
X108640476Y-83575390D02*
X108688095Y-83623009D01*
X108688095Y-83623009D02*
X108783333Y-83670628D01*
X108783333Y-83670628D02*
X109164285Y-83670628D01*
X107640476Y-84146819D02*
X108211904Y-84146819D01*
X107926190Y-84146819D02*
X107926190Y-83146819D01*
X107926190Y-83146819D02*
X108021428Y-83289676D01*
X108021428Y-83289676D02*
X108116666Y-83384914D01*
X108116666Y-83384914D02*
X108211904Y-83432533D01*
X106783333Y-83480152D02*
X106783333Y-84146819D01*
X107021428Y-83099200D02*
X107259523Y-83813485D01*
X107259523Y-83813485D02*
X106640476Y-83813485D01*
X110818819Y-77541333D02*
X110342628Y-77208000D01*
X110818819Y-76969905D02*
X109818819Y-76969905D01*
X109818819Y-76969905D02*
X109818819Y-77350857D01*
X109818819Y-77350857D02*
X109866438Y-77446095D01*
X109866438Y-77446095D02*
X109914057Y-77493714D01*
X109914057Y-77493714D02*
X110009295Y-77541333D01*
X110009295Y-77541333D02*
X110152152Y-77541333D01*
X110152152Y-77541333D02*
X110247390Y-77493714D01*
X110247390Y-77493714D02*
X110295009Y-77446095D01*
X110295009Y-77446095D02*
X110342628Y-77350857D01*
X110342628Y-77350857D02*
X110342628Y-76969905D01*
X109818819Y-78398476D02*
X109818819Y-78208000D01*
X109818819Y-78208000D02*
X109866438Y-78112762D01*
X109866438Y-78112762D02*
X109914057Y-78065143D01*
X109914057Y-78065143D02*
X110056914Y-77969905D01*
X110056914Y-77969905D02*
X110247390Y-77922286D01*
X110247390Y-77922286D02*
X110628342Y-77922286D01*
X110628342Y-77922286D02*
X110723580Y-77969905D01*
X110723580Y-77969905D02*
X110771200Y-78017524D01*
X110771200Y-78017524D02*
X110818819Y-78112762D01*
X110818819Y-78112762D02*
X110818819Y-78303238D01*
X110818819Y-78303238D02*
X110771200Y-78398476D01*
X110771200Y-78398476D02*
X110723580Y-78446095D01*
X110723580Y-78446095D02*
X110628342Y-78493714D01*
X110628342Y-78493714D02*
X110390247Y-78493714D01*
X110390247Y-78493714D02*
X110295009Y-78446095D01*
X110295009Y-78446095D02*
X110247390Y-78398476D01*
X110247390Y-78398476D02*
X110199771Y-78303238D01*
X110199771Y-78303238D02*
X110199771Y-78112762D01*
X110199771Y-78112762D02*
X110247390Y-78017524D01*
X110247390Y-78017524D02*
X110295009Y-77969905D01*
X110295009Y-77969905D02*
X110390247Y-77922286D01*
X86686819Y-51681142D02*
X86210628Y-51347809D01*
X86686819Y-51109714D02*
X85686819Y-51109714D01*
X85686819Y-51109714D02*
X85686819Y-51490666D01*
X85686819Y-51490666D02*
X85734438Y-51585904D01*
X85734438Y-51585904D02*
X85782057Y-51633523D01*
X85782057Y-51633523D02*
X85877295Y-51681142D01*
X85877295Y-51681142D02*
X86020152Y-51681142D01*
X86020152Y-51681142D02*
X86115390Y-51633523D01*
X86115390Y-51633523D02*
X86163009Y-51585904D01*
X86163009Y-51585904D02*
X86210628Y-51490666D01*
X86210628Y-51490666D02*
X86210628Y-51109714D01*
X86686819Y-52633523D02*
X86686819Y-52062095D01*
X86686819Y-52347809D02*
X85686819Y-52347809D01*
X85686819Y-52347809D02*
X85829676Y-52252571D01*
X85829676Y-52252571D02*
X85924914Y-52157333D01*
X85924914Y-52157333D02*
X85972533Y-52062095D01*
X85686819Y-53490666D02*
X85686819Y-53300190D01*
X85686819Y-53300190D02*
X85734438Y-53204952D01*
X85734438Y-53204952D02*
X85782057Y-53157333D01*
X85782057Y-53157333D02*
X85924914Y-53062095D01*
X85924914Y-53062095D02*
X86115390Y-53014476D01*
X86115390Y-53014476D02*
X86496342Y-53014476D01*
X86496342Y-53014476D02*
X86591580Y-53062095D01*
X86591580Y-53062095D02*
X86639200Y-53109714D01*
X86639200Y-53109714D02*
X86686819Y-53204952D01*
X86686819Y-53204952D02*
X86686819Y-53395428D01*
X86686819Y-53395428D02*
X86639200Y-53490666D01*
X86639200Y-53490666D02*
X86591580Y-53538285D01*
X86591580Y-53538285D02*
X86496342Y-53585904D01*
X86496342Y-53585904D02*
X86258247Y-53585904D01*
X86258247Y-53585904D02*
X86163009Y-53538285D01*
X86163009Y-53538285D02*
X86115390Y-53490666D01*
X86115390Y-53490666D02*
X86067771Y-53395428D01*
X86067771Y-53395428D02*
X86067771Y-53204952D01*
X86067771Y-53204952D02*
X86115390Y-53109714D01*
X86115390Y-53109714D02*
X86163009Y-53062095D01*
X86163009Y-53062095D02*
X86258247Y-53014476D01*
X91254819Y-51816095D02*
X92064342Y-51816095D01*
X92064342Y-51816095D02*
X92159580Y-51863714D01*
X92159580Y-51863714D02*
X92207200Y-51911333D01*
X92207200Y-51911333D02*
X92254819Y-52006571D01*
X92254819Y-52006571D02*
X92254819Y-52197047D01*
X92254819Y-52197047D02*
X92207200Y-52292285D01*
X92207200Y-52292285D02*
X92159580Y-52339904D01*
X92159580Y-52339904D02*
X92064342Y-52387523D01*
X92064342Y-52387523D02*
X91254819Y-52387523D01*
X92254819Y-53387523D02*
X92254819Y-52816095D01*
X92254819Y-53101809D02*
X91254819Y-53101809D01*
X91254819Y-53101809D02*
X91397676Y-53006571D01*
X91397676Y-53006571D02*
X91492914Y-52911333D01*
X91492914Y-52911333D02*
X91540533Y-52816095D01*
X107770819Y-77557333D02*
X107294628Y-77224000D01*
X107770819Y-76985905D02*
X106770819Y-76985905D01*
X106770819Y-76985905D02*
X106770819Y-77366857D01*
X106770819Y-77366857D02*
X106818438Y-77462095D01*
X106818438Y-77462095D02*
X106866057Y-77509714D01*
X106866057Y-77509714D02*
X106961295Y-77557333D01*
X106961295Y-77557333D02*
X107104152Y-77557333D01*
X107104152Y-77557333D02*
X107199390Y-77509714D01*
X107199390Y-77509714D02*
X107247009Y-77462095D01*
X107247009Y-77462095D02*
X107294628Y-77366857D01*
X107294628Y-77366857D02*
X107294628Y-76985905D01*
X106770819Y-77890667D02*
X106770819Y-78557333D01*
X106770819Y-78557333D02*
X107770819Y-78128762D01*
X112148857Y-40712819D02*
X112482190Y-40236628D01*
X112720285Y-40712819D02*
X112720285Y-39712819D01*
X112720285Y-39712819D02*
X112339333Y-39712819D01*
X112339333Y-39712819D02*
X112244095Y-39760438D01*
X112244095Y-39760438D02*
X112196476Y-39808057D01*
X112196476Y-39808057D02*
X112148857Y-39903295D01*
X112148857Y-39903295D02*
X112148857Y-40046152D01*
X112148857Y-40046152D02*
X112196476Y-40141390D01*
X112196476Y-40141390D02*
X112244095Y-40189009D01*
X112244095Y-40189009D02*
X112339333Y-40236628D01*
X112339333Y-40236628D02*
X112720285Y-40236628D01*
X111196476Y-40712819D02*
X111767904Y-40712819D01*
X111482190Y-40712819D02*
X111482190Y-39712819D01*
X111482190Y-39712819D02*
X111577428Y-39855676D01*
X111577428Y-39855676D02*
X111672666Y-39950914D01*
X111672666Y-39950914D02*
X111767904Y-39998533D01*
X110577428Y-39712819D02*
X110482190Y-39712819D01*
X110482190Y-39712819D02*
X110386952Y-39760438D01*
X110386952Y-39760438D02*
X110339333Y-39808057D01*
X110339333Y-39808057D02*
X110291714Y-39903295D01*
X110291714Y-39903295D02*
X110244095Y-40093771D01*
X110244095Y-40093771D02*
X110244095Y-40331866D01*
X110244095Y-40331866D02*
X110291714Y-40522342D01*
X110291714Y-40522342D02*
X110339333Y-40617580D01*
X110339333Y-40617580D02*
X110386952Y-40665200D01*
X110386952Y-40665200D02*
X110482190Y-40712819D01*
X110482190Y-40712819D02*
X110577428Y-40712819D01*
X110577428Y-40712819D02*
X110672666Y-40665200D01*
X110672666Y-40665200D02*
X110720285Y-40617580D01*
X110720285Y-40617580D02*
X110767904Y-40522342D01*
X110767904Y-40522342D02*
X110815523Y-40331866D01*
X110815523Y-40331866D02*
X110815523Y-40093771D01*
X110815523Y-40093771D02*
X110767904Y-39903295D01*
X110767904Y-39903295D02*
X110720285Y-39808057D01*
X110720285Y-39808057D02*
X110672666Y-39760438D01*
X110672666Y-39760438D02*
X110577428Y-39712819D01*
X104214819Y-53411333D02*
X103738628Y-53078000D01*
X104214819Y-52839905D02*
X103214819Y-52839905D01*
X103214819Y-52839905D02*
X103214819Y-53220857D01*
X103214819Y-53220857D02*
X103262438Y-53316095D01*
X103262438Y-53316095D02*
X103310057Y-53363714D01*
X103310057Y-53363714D02*
X103405295Y-53411333D01*
X103405295Y-53411333D02*
X103548152Y-53411333D01*
X103548152Y-53411333D02*
X103643390Y-53363714D01*
X103643390Y-53363714D02*
X103691009Y-53316095D01*
X103691009Y-53316095D02*
X103738628Y-53220857D01*
X103738628Y-53220857D02*
X103738628Y-52839905D01*
X103548152Y-54268476D02*
X104214819Y-54268476D01*
X103167200Y-54030381D02*
X103881485Y-53792286D01*
X103881485Y-53792286D02*
X103881485Y-54411333D01*
D13*
X103051070Y-84751958D02*
X104829575Y-79865556D01*
X103159720Y-78459646D02*
X93856763Y-75073646D01*
X105248291Y-79592285D02*
X105692917Y-78370685D01*
X105692917Y-78370685D02*
X104471317Y-77926059D01*
X91565228Y-81369587D02*
X100868185Y-84755586D01*
X91673878Y-75077274D02*
X89895374Y-79963676D01*
X82777000Y-69315064D02*
X82777000Y-68860936D01*
X81307000Y-69315064D02*
X81307000Y-68860936D01*
X70480000Y-61355000D02*
X76480000Y-61355000D01*
X76480000Y-64845000D02*
X76480000Y-57105000D01*
X82010000Y-58055000D02*
X81622929Y-58055000D01*
X70480000Y-63135000D02*
X70480000Y-63895000D01*
X79140000Y-64845000D02*
X76480000Y-64845000D01*
X79537071Y-60595000D02*
X79140000Y-60595000D01*
X70480000Y-60595000D02*
X70480000Y-61355000D01*
X79537071Y-63135000D02*
X79140000Y-63135000D01*
X76480000Y-57105000D02*
X79140000Y-57105000D01*
X79537071Y-58055000D02*
X79140000Y-58055000D01*
X79537071Y-58815000D02*
X79140000Y-58815000D01*
X82077071Y-63895000D02*
X81622929Y-63895000D01*
X82010000Y-58815000D02*
X81622929Y-58815000D01*
X84390000Y-57165000D02*
X83120000Y-57165000D01*
X79140000Y-57105000D02*
X79140000Y-64845000D01*
X76480000Y-60595000D02*
X70480000Y-60595000D01*
X76480000Y-58235000D02*
X70480000Y-58235000D01*
X79537071Y-63895000D02*
X79140000Y-63895000D01*
X76480000Y-58115000D02*
X70480000Y-58115000D01*
X82077071Y-60595000D02*
X81622929Y-60595000D01*
X82077071Y-63135000D02*
X81622929Y-63135000D01*
X76480000Y-58475000D02*
X70480000Y-58475000D01*
X79537071Y-61355000D02*
X79140000Y-61355000D01*
X76480000Y-58715000D02*
X70480000Y-58715000D01*
X79140000Y-59705000D02*
X76480000Y-59705000D01*
X84390000Y-58435000D02*
X84390000Y-57165000D01*
X82077071Y-61355000D02*
X81622929Y-61355000D01*
X79140000Y-62245000D02*
X76480000Y-62245000D01*
X70480000Y-63895000D02*
X76480000Y-63895000D01*
X70480000Y-58815000D02*
X76480000Y-58815000D01*
X76480000Y-58355000D02*
X70480000Y-58355000D01*
X76480000Y-58055000D02*
X70480000Y-58055000D01*
X76480000Y-63135000D02*
X70480000Y-63135000D01*
X76480000Y-58595000D02*
X70480000Y-58595000D01*
X70480000Y-58055000D02*
X70480000Y-58815000D01*
X88244000Y-74371252D02*
X88244000Y-72948748D01*
X90064000Y-74371252D02*
X90064000Y-72948748D01*
X120910000Y-77730000D02*
X120910000Y-72660000D01*
X115310000Y-77730000D02*
X120910000Y-77730000D01*
X115310000Y-77730000D02*
X115310000Y-72660000D01*
X120910000Y-72660000D02*
X124390000Y-72660000D01*
X115310000Y-72660000D02*
X113860000Y-72660000D01*
X113860000Y-72660000D02*
X107480000Y-65780000D01*
X107480000Y-58180000D02*
X107480000Y-65780000D01*
X120910000Y-51300000D02*
X124460000Y-51300000D01*
X115310000Y-51300000D02*
X113860000Y-51300000D01*
X115310000Y-51300000D02*
X115310000Y-46230000D01*
X113860000Y-51300000D02*
X107480000Y-58180000D01*
X120910000Y-46230000D02*
X120910000Y-51300000D01*
X115310000Y-46230000D02*
X120910000Y-46230000D01*
X124410000Y-72657058D02*
G75*
G03*
X126449999Y-67160001I-1J3127058D01*
G01*
X126577393Y-56673579D02*
G75*
G03*
X126440002Y-67149998I5132608J-5306421D01*
G01*
X126602753Y-56663548D02*
G75*
G03*
X124410000Y-51300000I-2192753J2233548D01*
G01*
X86370936Y-69115000D02*
X86825064Y-69115000D01*
X86370936Y-70585000D02*
X86825064Y-70585000D01*
X112495064Y-82777000D02*
X112040936Y-82777000D01*
X112495064Y-81307000D02*
X112040936Y-81307000D01*
D12*
X98254000Y-58205000D02*
X98254000Y-58410000D01*
X98254000Y-63715000D02*
X92754000Y-63715000D01*
X98254000Y-58410000D02*
X100004000Y-58410000D01*
X92754000Y-58205000D02*
X92754000Y-58505000D01*
X98254000Y-63715000D02*
X98254000Y-63415000D01*
X98254000Y-58205000D02*
X92754000Y-58205000D01*
X92754000Y-63715000D02*
X92754000Y-63415000D01*
D13*
X93498936Y-72363000D02*
X93953064Y-72363000D01*
X93498936Y-70893000D02*
X93953064Y-70893000D01*
X109971064Y-52043000D02*
X109516936Y-52043000D01*
X109971064Y-50573000D02*
X109516936Y-50573000D01*
X112495064Y-48487000D02*
X112040936Y-48487000D01*
X112495064Y-47017000D02*
X112040936Y-47017000D01*
X100389000Y-70612000D02*
X100389000Y-72812000D01*
X105859000Y-70612000D02*
X105859000Y-74212000D01*
X105859000Y-70612000D02*
X105859000Y-68412000D01*
X100389000Y-70612000D02*
X100389000Y-68412000D01*
X88619064Y-48741000D02*
X88164936Y-48741000D01*
X88619064Y-47271000D02*
X88164936Y-47271000D01*
X106145000Y-58155064D02*
X106145000Y-57700936D01*
X104675000Y-58155064D02*
X104675000Y-57700936D01*
X115797064Y-79021000D02*
X115342936Y-79021000D01*
X115797064Y-80491000D02*
X115342936Y-80491000D01*
X86387000Y-52535064D02*
X86387000Y-52080936D01*
X87857000Y-52535064D02*
X87857000Y-52080936D01*
X95530936Y-37619000D02*
X95985064Y-37619000D01*
X95530936Y-39089000D02*
X95985064Y-39089000D01*
X107722936Y-82777000D02*
X108177064Y-82777000D01*
X107722936Y-81307000D02*
X108177064Y-81307000D01*
X112749000Y-77480936D02*
X112749000Y-77935064D01*
X111279000Y-77480936D02*
X111279000Y-77935064D01*
X85317000Y-52551064D02*
X85317000Y-52096936D01*
X83847000Y-52551064D02*
X83847000Y-52096936D01*
X92515000Y-52578000D02*
X92515000Y-54778000D01*
X97985000Y-52578000D02*
X97985000Y-50378000D01*
X97985000Y-52578000D02*
X97985000Y-54778000D01*
X92515000Y-52578000D02*
X92515000Y-48978000D01*
X109701000Y-77496936D02*
X109701000Y-77951064D01*
X108231000Y-77496936D02*
X108231000Y-77951064D01*
X111278936Y-37873000D02*
X111733064Y-37873000D01*
X111278936Y-39343000D02*
X111733064Y-39343000D01*
X104675000Y-53350936D02*
X104675000Y-53805064D01*
X106145000Y-53350936D02*
X106145000Y-53805064D01*
%LPC*%
D14*
X92750379Y-75043417D03*
X101974570Y-84785815D03*
X104026690Y-79147659D03*
X90698258Y-80681573D03*
D15*
X101548770Y-80108081D03*
X97790000Y-78740000D03*
X94031229Y-77371920D03*
D16*
X82042000Y-70088000D03*
X82042000Y-68088000D03*
D17*
X83120000Y-58435000D03*
D18*
X80580000Y-58435000D03*
X83120000Y-60975000D03*
X80580000Y-60975000D03*
X83120000Y-63515000D03*
X80580000Y-63515000D03*
D19*
X89154000Y-75222500D03*
X89154000Y-72097500D03*
D20*
X118110000Y-74930000D03*
X118110000Y-49030000D03*
D21*
X118110000Y-61980000D03*
D22*
X85598000Y-69850000D03*
X87598000Y-69850000D03*
D23*
X113268000Y-82042000D03*
X111268000Y-82042000D03*
D24*
X99154000Y-59055000D03*
X99154000Y-60325000D03*
X99154000Y-61595000D03*
X99154000Y-62865000D03*
X91854000Y-62865000D03*
X91854000Y-61595000D03*
X91854000Y-60325000D03*
X91854000Y-59055000D03*
D22*
X92726000Y-71628000D03*
X94726000Y-71628000D03*
D23*
X110744000Y-51308000D03*
X108744000Y-51308000D03*
X113268000Y-47752000D03*
X111268000Y-47752000D03*
D25*
X105399000Y-73474500D03*
X104749000Y-73474500D03*
X104099000Y-73474500D03*
X103449000Y-73474500D03*
X102799000Y-73474500D03*
X102149000Y-73474500D03*
X101499000Y-73474500D03*
X100849000Y-73474500D03*
X100849000Y-67749500D03*
X101499000Y-67749500D03*
X102149000Y-67749500D03*
X102799000Y-67749500D03*
X103449000Y-67749500D03*
X104099000Y-67749500D03*
X104749000Y-67749500D03*
X105399000Y-67749500D03*
D23*
X89392000Y-48006000D03*
X87392000Y-48006000D03*
D16*
X105410000Y-56928000D03*
X105410000Y-58928000D03*
D23*
X116570000Y-79756000D03*
X114570000Y-79756000D03*
D16*
X87122000Y-51308000D03*
X87122000Y-53308000D03*
D22*
X94758000Y-38354000D03*
X96758000Y-38354000D03*
X106950000Y-82042000D03*
X108950000Y-82042000D03*
D26*
X112014000Y-76708000D03*
X112014000Y-78708000D03*
D16*
X84582000Y-53324000D03*
X84582000Y-51324000D03*
D27*
X92975000Y-49715500D03*
X93625000Y-49715500D03*
X94275000Y-49715500D03*
X94925000Y-49715500D03*
X95575000Y-49715500D03*
X96225000Y-49715500D03*
X96875000Y-49715500D03*
X97525000Y-49715500D03*
X97525000Y-55440500D03*
X96875000Y-55440500D03*
X96225000Y-55440500D03*
X95575000Y-55440500D03*
X94925000Y-55440500D03*
X94275000Y-55440500D03*
X93625000Y-55440500D03*
X92975000Y-55440500D03*
D26*
X108966000Y-76724000D03*
X108966000Y-78724000D03*
D22*
X110506000Y-38608000D03*
X112506000Y-38608000D03*
D26*
X105410000Y-54578000D03*
X105410000Y-52578000D03*
%LPD*%
M02*
