%TF.GenerationSoftware,KiCad,Pcbnew,7.0.9*%
%TF.CreationDate,2023-12-12T13:48:37+01:00*%
%TF.ProjectId,DTimponator-badge,4454696d-706f-46e6-9174-6f722d626164,2.1*%
%TF.SameCoordinates,Original*%
%TF.FileFunction,Soldermask,Top*%
%TF.FilePolarity,Negative*%
%FSLAX46Y46*%
G04 Gerber Fmt 4.6, Leading zero omitted, Abs format (unit mm)*
G04 Created by KiCad (PCBNEW 7.0.9) date 2023-12-12 13:48:37*
%MOMM*%
%LPD*%
G01*
G04 APERTURE LIST*
G04 Aperture macros list*
%AMRoundRect*
0 Rectangle with rounded corners*
0 $1 Rounding radius*
0 $2 $3 $4 $5 $6 $7 $8 $9 X,Y pos of 4 corners*
0 Add a 4 corners polygon primitive as box body*
4,1,4,$2,$3,$4,$5,$6,$7,$8,$9,$2,$3,0*
0 Add four circle primitives for the rounded corners*
1,1,$1+$1,$2,$3*
1,1,$1+$1,$4,$5*
1,1,$1+$1,$6,$7*
1,1,$1+$1,$8,$9*
0 Add four rect primitives between the rounded corners*
20,1,$1+$1,$2,$3,$4,$5,0*
20,1,$1+$1,$4,$5,$6,$7,0*
20,1,$1+$1,$6,$7,$8,$9,0*
20,1,$1+$1,$8,$9,$2,$3,0*%
G04 Aperture macros list end*
%ADD10C,2.000000*%
%ADD11C,1.700000*%
%ADD12R,1.700000X1.700000*%
%ADD13O,1.700000X1.700000*%
%ADD14RoundRect,0.237500X0.287500X0.237500X-0.287500X0.237500X-0.287500X-0.237500X0.287500X-0.237500X0*%
%ADD15RoundRect,0.237500X-0.287500X-0.237500X0.287500X-0.237500X0.287500X0.237500X-0.287500X0.237500X0*%
G04 APERTURE END LIST*
D10*
X92750379Y-75043417D03*
X101974570Y-84785815D03*
X104026690Y-79147659D03*
X90698258Y-80681573D03*
D11*
X101548770Y-80108081D03*
X97790000Y-78740000D03*
X94031229Y-77371920D03*
D12*
X83120000Y-58435000D03*
D13*
X80580000Y-58435000D03*
X83120000Y-60975000D03*
X80580000Y-60975000D03*
X83120000Y-63515000D03*
X80580000Y-63515000D03*
D14*
X123049000Y-76708000D03*
X121299000Y-76708000D03*
X85457000Y-74676000D03*
X83707000Y-74676000D03*
X92315000Y-67818000D03*
X90565000Y-67818000D03*
X89013000Y-43180000D03*
X87263000Y-43180000D03*
X93331000Y-50546000D03*
X91581000Y-50546000D03*
D15*
X93980000Y-61214000D03*
X92230000Y-61214000D03*
D14*
X105015000Y-36576000D03*
X103265000Y-36576000D03*
X79897000Y-55880000D03*
X81647000Y-55880000D03*
X128891000Y-60198000D03*
X127141000Y-60198000D03*
X122287000Y-44704000D03*
X120537000Y-44704000D03*
D15*
X113820000Y-51308000D03*
X115570000Y-51308000D03*
D14*
X115683000Y-68580000D03*
X113933000Y-68580000D03*
X100189000Y-58928000D03*
X98439000Y-58928000D03*
X106031000Y-85598000D03*
X104281000Y-85598000D03*
X105015000Y-72390000D03*
X103265000Y-72390000D03*
X107047000Y-47244000D03*
X105297000Y-47244000D03*
M02*
