M48
; DRILL file {KiCad 6.0.1+dfsg-1} date Tue 25 Jan 2022 10:45:26 AM CET
; FORMAT={-:-/ absolute / metric / decimal}
; #@! TF.CreationDate,2022-01-25T10:45:26+01:00
; #@! TF.GenerationSoftware,Kicad,Pcbnew,6.0.1+dfsg-1
; #@! TF.FileFunction,Plated,1,2,PTH
FMAT,2
METRIC
; #@! TA.AperFunction,Plated,PTH,ViaDrill
T1C0.400
; #@! TA.AperFunction,Plated,PTH,ComponentDrill
T2C0.800
; #@! TA.AperFunction,Plated,PTH,ComponentDrill
T3C1.000
; #@! TA.AperFunction,Plated,PTH,ComponentDrill
T4C1.100
; #@! TA.AperFunction,Plated,PTH,ComponentDrill
T5C1.500
%
G90
G05
T1
X114.808Y-68.072
X116.84Y-106.172
X128.524Y-73.66
X130.175Y-81.915
X133.096Y-111.252
X134.62Y-88.9
X135.128Y-61.976
X142.24Y-89.916
X143.764Y-69.088
X144.145Y-73.025
X144.78Y-84.455
X148.844Y-43.688
X149.352Y-77.724
X149.352Y-98.552
X150.876Y-84.074
X151.892Y-97.028
X153.416Y-88.9
X154.94Y-87.376
X155.956Y-68.58
X156.21Y-72.136
X160.528Y-56.388
X161.544Y-135.128
X163.068Y-73.914
X168.656Y-81.28
X169.164Y-71.12
X169.672Y-62.484
X170.18Y-77.216
X170.18Y-81.788
X170.688Y-80.264
X171.196Y-57.912
X171.196Y-83.312
X172.72Y-46.736
X174.244Y-75.692
X174.752Y-89.916
X175.26Y-87.884
X176.276Y-91.948
X176.784Y-86.868
X176.784Y-89.916
X178.308Y-93.472
X184.912Y-94.996
X191.516Y-107.696
X192.024Y-78.74
X193.04Y-90.424
X194.564Y-84.836
X195.072Y-69.596
X195.58Y-86.868
X197.104Y-88.9
T2
X136.551Y-130.481
X138.43Y-131.165
X140.309Y-131.849
T3
X154.94Y-111.066
X154.94Y-131.066
T4
X121.845Y-110.145
X121.845Y-114.645
X128.345Y-110.145
X128.345Y-114.645
T5
X134.577Y-129.763
X142.283Y-132.568
T0
M30
