%TF.GenerationSoftware,KiCad,Pcbnew,6.0.1+dfsg-1*%
%TF.CreationDate,2022-01-25T10:44:23+01:00*%
%TF.ProjectId,DTimponator-badge,4454696d-706f-46e6-9174-6f722d626164,2.0*%
%TF.SameCoordinates,Original*%
%TF.FileFunction,Copper,L1,Top*%
%TF.FilePolarity,Positive*%
%FSLAX46Y46*%
G04 Gerber Fmt 4.6, Leading zero omitted, Abs format (unit mm)*
G04 Created by KiCad (PCBNEW 6.0.1+dfsg-1) date 2022-01-25 10:44:23*
%MOMM*%
%LPD*%
G01*
G04 APERTURE LIST*
G04 Aperture macros list*
%AMRoundRect*
0 Rectangle with rounded corners*
0 $1 Rounding radius*
0 $2 $3 $4 $5 $6 $7 $8 $9 X,Y pos of 4 corners*
0 Add a 4 corners polygon primitive as box body*
4,1,4,$2,$3,$4,$5,$6,$7,$8,$9,$2,$3,0*
0 Add four circle primitives for the rounded corners*
1,1,$1+$1,$2,$3*
1,1,$1+$1,$4,$5*
1,1,$1+$1,$6,$7*
1,1,$1+$1,$8,$9*
0 Add four rect primitives between the rounded corners*
20,1,$1+$1,$2,$3,$4,$5,0*
20,1,$1+$1,$4,$5,$6,$7,0*
20,1,$1+$1,$6,$7,$8,$9,0*
20,1,$1+$1,$8,$9,$2,$3,0*%
%AMHorizOval*
0 Thick line with rounded ends*
0 $1 width*
0 $2 $3 position (X,Y) of the first rounded end (center of the circle)*
0 $4 $5 position (X,Y) of the second rounded end (center of the circle)*
0 Add line between two ends*
20,1,$1,$2,$3,$4,$5,0*
0 Add two circle primitives to create the rounded ends*
1,1,$1,$2,$3*
1,1,$1,$4,$5*%
%AMRotRect*
0 Rectangle, with rotation*
0 The origin of the aperture is its center*
0 $1 length*
0 $2 width*
0 $3 Rotation angle, in degrees counterclockwise*
0 Add horizontal line*
21,1,$1,$2,0,0,$3*%
G04 Aperture macros list end*
%TA.AperFunction,SMDPad,CuDef*%
%ADD10RoundRect,0.237500X-0.287500X-0.237500X0.287500X-0.237500X0.287500X0.237500X-0.287500X0.237500X0*%
%TD*%
%TA.AperFunction,SMDPad,CuDef*%
%ADD11RoundRect,0.237500X0.287500X0.237500X-0.287500X0.237500X-0.287500X-0.237500X0.287500X-0.237500X0*%
%TD*%
%TA.AperFunction,ComponentPad*%
%ADD12C,2.000000*%
%TD*%
%TA.AperFunction,ComponentPad*%
%ADD13R,2.000000X2.000000*%
%TD*%
%TA.AperFunction,ComponentPad*%
%ADD14HorizOval,2.000000X0.171010X0.469846X-0.171010X-0.469846X0*%
%TD*%
%TA.AperFunction,ComponentPad*%
%ADD15RotRect,1.524000X1.524000X160.000000*%
%TD*%
%TA.AperFunction,ComponentPad*%
%ADD16C,1.524000*%
%TD*%
%TA.AperFunction,ViaPad*%
%ADD17C,0.800000*%
%TD*%
%TA.AperFunction,Conductor*%
%ADD18C,0.400000*%
%TD*%
G04 APERTURE END LIST*
D10*
X115965000Y-64516000D03*
X117715000Y-64516000D03*
D11*
X156323000Y-135128000D03*
X154573000Y-135128000D03*
D10*
X170575000Y-72390000D03*
X172325000Y-72390000D03*
D11*
X194931000Y-66040000D03*
X193181000Y-66040000D03*
D10*
X131205000Y-72390000D03*
X132955000Y-72390000D03*
X138585000Y-67310000D03*
X140335000Y-67310000D03*
X171845000Y-66040000D03*
X173595000Y-66040000D03*
X195213000Y-107696000D03*
X196963000Y-107696000D03*
X154065000Y-42672000D03*
X155815000Y-42672000D03*
X164860000Y-62230000D03*
X166610000Y-62230000D03*
X145810000Y-86995000D03*
X147560000Y-86995000D03*
X146205000Y-74295000D03*
X147955000Y-74295000D03*
X130570000Y-84455000D03*
X132320000Y-84455000D03*
D11*
X114808000Y-108204000D03*
X113058000Y-108204000D03*
D10*
X159780000Y-67945000D03*
X161530000Y-67945000D03*
X135890000Y-90170000D03*
X137640000Y-90170000D03*
D12*
X121845000Y-114645000D03*
X128345000Y-114645000D03*
X128345000Y-110145000D03*
X121845000Y-110145000D03*
D13*
X154939999Y-131066001D03*
D12*
X154939999Y-111066001D03*
D14*
X134577260Y-129762971D03*
X142282740Y-132567537D03*
D15*
X140309385Y-131849294D03*
D16*
X138430000Y-131165254D03*
X136550615Y-130481214D03*
D17*
X143764000Y-69088000D03*
X169672000Y-62484000D03*
X184912000Y-94996000D03*
X178308000Y-93472000D03*
X174244000Y-75692000D03*
X170180000Y-77216000D03*
X135128000Y-61976000D03*
X172720000Y-46736000D03*
X192024000Y-78740000D03*
X144780000Y-84455000D03*
X160528000Y-56388000D03*
X116840000Y-106172000D03*
X170180000Y-81788000D03*
X149352000Y-98552000D03*
X176784000Y-89916000D03*
X168656000Y-81280000D03*
X151892000Y-97028000D03*
X176276000Y-91948000D03*
X133096000Y-111252000D03*
X128524000Y-73660000D03*
X154940000Y-87376000D03*
X130175000Y-81915000D03*
X153416000Y-88900000D03*
X134620000Y-88900000D03*
X174752000Y-89916000D03*
X171196000Y-83312000D03*
X142240000Y-89916000D03*
X150876000Y-84074000D03*
X144145000Y-73025000D03*
X149352000Y-77724000D03*
X155956000Y-68580000D03*
X156210000Y-72136000D03*
X169164000Y-71120000D03*
X163068000Y-73914000D03*
X171196000Y-57912000D03*
X176784000Y-86868000D03*
X148844000Y-43688000D03*
X114808000Y-68072000D03*
X194564000Y-84836000D03*
X161544000Y-135128000D03*
X195580000Y-86868000D03*
X191516000Y-107696000D03*
X197104000Y-88900000D03*
X195072000Y-69596000D03*
X193040000Y-90424000D03*
X170688000Y-80264000D03*
X175260000Y-87884000D03*
D18*
X143764000Y-69088000D02*
X141986000Y-67310000D01*
X141986000Y-67310000D02*
X140335000Y-67310000D01*
X169672000Y-62484000D02*
X166864000Y-62484000D01*
X166864000Y-62484000D02*
X166610000Y-62230000D01*
X172720000Y-77216000D02*
X174244000Y-75692000D01*
X178308000Y-93472000D02*
X179832000Y-94996000D01*
X179832000Y-94996000D02*
X184912000Y-94996000D01*
X170180000Y-77216000D02*
X172720000Y-77216000D01*
X138585000Y-67310000D02*
X135128000Y-63853000D01*
X135128000Y-63853000D02*
X135128000Y-61976000D01*
X172720000Y-46736000D02*
X159879000Y-46736000D01*
X159879000Y-46736000D02*
X155815000Y-42672000D01*
X192024000Y-78740000D02*
X192024000Y-75184000D01*
X170688000Y-53848000D02*
X135636000Y-53848000D01*
X124968000Y-64516000D02*
X117715000Y-64516000D01*
X135636000Y-53848000D02*
X124968000Y-64516000D01*
X192024000Y-75184000D02*
X170688000Y-53848000D01*
X145810000Y-86995000D02*
X145810000Y-85485000D01*
X145810000Y-85485000D02*
X144780000Y-84455000D01*
X164860000Y-62230000D02*
X160528000Y-57898000D01*
X160528000Y-57898000D02*
X160528000Y-56388000D01*
X114808000Y-108204000D02*
X116840000Y-106172000D01*
X169672000Y-80264000D02*
X169164000Y-79756000D01*
X170180000Y-81776557D02*
X169672000Y-81268557D01*
X166624000Y-79756000D02*
X149352000Y-97028000D01*
X170180000Y-81788000D02*
X170180000Y-81776557D01*
X176784000Y-89916000D02*
X176264557Y-89916000D01*
X174752000Y-88900000D02*
X172720000Y-86868000D01*
X169164000Y-79756000D02*
X166624000Y-79756000D01*
X172720000Y-86868000D02*
X172720000Y-84328000D01*
X171196000Y-81788000D02*
X170180000Y-81788000D01*
X169672000Y-81268557D02*
X169672000Y-80264000D01*
X172720000Y-84328000D02*
X172720000Y-83312000D01*
X149352000Y-97028000D02*
X149352000Y-98552000D01*
X176264557Y-89916000D02*
X175248557Y-88900000D01*
X172720000Y-83312000D02*
X171196000Y-81788000D01*
X175248557Y-88900000D02*
X174752000Y-88900000D01*
X176276000Y-91948000D02*
X174752000Y-91948000D01*
X157480000Y-91440000D02*
X151892000Y-97028000D01*
X170688000Y-87884000D02*
X168656000Y-85852000D01*
X172720000Y-89916000D02*
X170688000Y-87884000D01*
X168656000Y-85852000D02*
X168656000Y-81280000D01*
X167132000Y-91440000D02*
X157480000Y-91440000D01*
X170688000Y-87884000D02*
X167132000Y-91440000D01*
X174752000Y-91948000D02*
X172720000Y-89916000D01*
X133096000Y-111252000D02*
X131738000Y-111252000D01*
X131738000Y-111252000D02*
X128345000Y-114645000D01*
X129794000Y-72390000D02*
X128524000Y-73660000D01*
X131205000Y-72390000D02*
X129794000Y-72390000D01*
X135890000Y-74422000D02*
X133858000Y-72390000D01*
X133858000Y-72390000D02*
X132955000Y-72390000D01*
X154940000Y-87376000D02*
X154940000Y-85090000D01*
X135890000Y-75752356D02*
X135890000Y-74422000D01*
X140147644Y-80010000D02*
X135890000Y-75752356D01*
X154940000Y-85090000D02*
X149860000Y-80010000D01*
X149860000Y-80010000D02*
X140147644Y-80010000D01*
X130570000Y-84455000D02*
X130570000Y-82310000D01*
X130570000Y-82310000D02*
X130175000Y-81915000D01*
X153416000Y-88900000D02*
X144018000Y-88900000D01*
X144018000Y-88900000D02*
X141732000Y-86614000D01*
X141732000Y-86614000D02*
X134479000Y-86614000D01*
X134479000Y-86614000D02*
X132320000Y-84455000D01*
X135890000Y-90170000D02*
X134620000Y-88900000D01*
X171196000Y-86360000D02*
X171196000Y-83312000D01*
X174752000Y-89916000D02*
X171196000Y-86360000D01*
X142240000Y-89916000D02*
X141986000Y-90170000D01*
X141986000Y-90170000D02*
X137640000Y-90170000D01*
X150876000Y-84074000D02*
X147955000Y-86995000D01*
X147955000Y-86995000D02*
X147560000Y-86995000D01*
X146205000Y-74295000D02*
X145415000Y-74295000D01*
X145415000Y-74295000D02*
X144145000Y-73025000D01*
X149352000Y-75692000D02*
X147955000Y-74295000D01*
X149352000Y-77724000D02*
X149352000Y-75692000D01*
X159780000Y-67945000D02*
X156591000Y-67945000D01*
X156591000Y-67945000D02*
X155956000Y-68580000D01*
X161530000Y-69864000D02*
X161530000Y-67945000D01*
X160274000Y-71120000D02*
X161530000Y-69864000D01*
X157226000Y-71120000D02*
X160274000Y-71120000D01*
X156210000Y-72136000D02*
X157226000Y-71120000D01*
X170434000Y-72390000D02*
X169164000Y-71120000D01*
X170575000Y-72390000D02*
X170434000Y-72390000D01*
X171958000Y-73914000D02*
X172325000Y-73547000D01*
X163068000Y-73914000D02*
X171958000Y-73914000D01*
X172325000Y-73547000D02*
X172325000Y-72390000D01*
X171196000Y-65391000D02*
X171196000Y-57912000D01*
X171845000Y-66040000D02*
X171196000Y-65391000D01*
X175768000Y-66040000D02*
X173595000Y-66040000D01*
X176784000Y-86868000D02*
X176784000Y-67056000D01*
X176784000Y-67056000D02*
X175768000Y-66040000D01*
X149860000Y-42672000D02*
X148844000Y-43688000D01*
X154065000Y-42672000D02*
X149860000Y-42672000D01*
X114808000Y-65673000D02*
X114808000Y-68072000D01*
X115965000Y-64516000D02*
X114808000Y-65673000D01*
X184912000Y-100584000D02*
X117348000Y-100584000D01*
X194564000Y-90932000D02*
X184912000Y-100584000D01*
X117348000Y-100584000D02*
X113058000Y-104874000D01*
X194564000Y-84836000D02*
X194564000Y-90932000D01*
X113058000Y-104874000D02*
X113058000Y-108204000D01*
X156323000Y-135128000D02*
X161544000Y-135128000D01*
X153416000Y-128016000D02*
X150876000Y-130556000D01*
X152400000Y-135128000D02*
X154573000Y-135128000D01*
X195580000Y-86868000D02*
X195580000Y-91948000D01*
X159512000Y-128016000D02*
X153416000Y-128016000D01*
X150876000Y-133604000D02*
X152400000Y-135128000D01*
X195580000Y-91948000D02*
X159512000Y-128016000D01*
X150876000Y-130556000D02*
X150876000Y-133604000D01*
X195213000Y-107696000D02*
X191516000Y-107696000D01*
X197104000Y-107555000D02*
X196963000Y-107696000D01*
X197104000Y-88900000D02*
X197104000Y-107555000D01*
X194931000Y-66040000D02*
X194931000Y-69455000D01*
X194931000Y-69455000D02*
X195072000Y-69596000D01*
X193040000Y-66181000D02*
X193181000Y-66040000D01*
X193040000Y-90424000D02*
X193040000Y-66181000D01*
X175260000Y-84836000D02*
X170688000Y-80264000D01*
X175260000Y-87884000D02*
X175260000Y-84836000D01*
M02*
