%TF.GenerationSoftware,KiCad,Pcbnew,7.0.9*%
%TF.CreationDate,2023-12-12T13:48:37+01:00*%
%TF.ProjectId,DTimponator-badge,4454696d-706f-46e6-9174-6f722d626164,2.1*%
%TF.SameCoordinates,Original*%
%TF.FileFunction,Copper,L2,Bot*%
%TF.FilePolarity,Positive*%
%FSLAX46Y46*%
G04 Gerber Fmt 4.6, Leading zero omitted, Abs format (unit mm)*
G04 Created by KiCad (PCBNEW 7.0.9) date 2023-12-12 13:48:37*
%MOMM*%
%LPD*%
G01*
G04 APERTURE LIST*
G04 Aperture macros list*
%AMRoundRect*
0 Rectangle with rounded corners*
0 $1 Rounding radius*
0 $2 $3 $4 $5 $6 $7 $8 $9 X,Y pos of 4 corners*
0 Add a 4 corners polygon primitive as box body*
4,1,4,$2,$3,$4,$5,$6,$7,$8,$9,$2,$3,0*
0 Add four circle primitives for the rounded corners*
1,1,$1+$1,$2,$3*
1,1,$1+$1,$4,$5*
1,1,$1+$1,$6,$7*
1,1,$1+$1,$8,$9*
0 Add four rect primitives between the rounded corners*
20,1,$1+$1,$2,$3,$4,$5,0*
20,1,$1+$1,$4,$5,$6,$7,0*
20,1,$1+$1,$6,$7,$8,$9,0*
20,1,$1+$1,$8,$9,$2,$3,0*%
G04 Aperture macros list end*
%TA.AperFunction,ComponentPad*%
%ADD10C,2.000000*%
%TD*%
%TA.AperFunction,ComponentPad*%
%ADD11C,1.700000*%
%TD*%
%TA.AperFunction,SMDPad,CuDef*%
%ADD12RoundRect,0.250000X0.450000X-0.350000X0.450000X0.350000X-0.450000X0.350000X-0.450000X-0.350000X0*%
%TD*%
%TA.AperFunction,ComponentPad*%
%ADD13R,1.700000X1.700000*%
%TD*%
%TA.AperFunction,ComponentPad*%
%ADD14O,1.700000X1.700000*%
%TD*%
%TA.AperFunction,SMDPad,CuDef*%
%ADD15RoundRect,0.250000X0.650000X-0.412500X0.650000X0.412500X-0.650000X0.412500X-0.650000X-0.412500X0*%
%TD*%
%TA.AperFunction,SMDPad,CuDef*%
%ADD16R,5.000000X5.000000*%
%TD*%
%TA.AperFunction,SMDPad,CuDef*%
%ADD17R,4.000000X4.000000*%
%TD*%
%TA.AperFunction,SMDPad,CuDef*%
%ADD18RoundRect,0.250000X-0.350000X-0.450000X0.350000X-0.450000X0.350000X0.450000X-0.350000X0.450000X0*%
%TD*%
%TA.AperFunction,SMDPad,CuDef*%
%ADD19RoundRect,0.250000X0.350000X0.450000X-0.350000X0.450000X-0.350000X-0.450000X0.350000X-0.450000X0*%
%TD*%
%TA.AperFunction,SMDPad,CuDef*%
%ADD20R,1.700000X0.650000*%
%TD*%
%TA.AperFunction,SMDPad,CuDef*%
%ADD21RoundRect,0.100000X0.100000X-0.637500X0.100000X0.637500X-0.100000X0.637500X-0.100000X-0.637500X0*%
%TD*%
%TA.AperFunction,SMDPad,CuDef*%
%ADD22RoundRect,0.250000X-0.450000X0.350000X-0.450000X-0.350000X0.450000X-0.350000X0.450000X0.350000X0*%
%TD*%
%TA.AperFunction,SMDPad,CuDef*%
%ADD23RoundRect,0.100000X-0.100000X0.637500X-0.100000X-0.637500X0.100000X-0.637500X0.100000X0.637500X0*%
%TD*%
%TA.AperFunction,ViaPad*%
%ADD24C,0.800000*%
%TD*%
%TA.AperFunction,Conductor*%
%ADD25C,0.400000*%
%TD*%
G04 APERTURE END LIST*
D10*
X92750379Y-75043417D03*
X101974570Y-84785815D03*
X104026690Y-79147659D03*
X90698258Y-80681573D03*
D11*
X101548770Y-80108081D03*
X97790000Y-78740000D03*
X94031229Y-77371920D03*
D12*
X82042000Y-70088000D03*
X82042000Y-68088000D03*
D13*
X83120000Y-58435000D03*
D14*
X80580000Y-58435000D03*
X83120000Y-60975000D03*
X80580000Y-60975000D03*
X83120000Y-63515000D03*
X80580000Y-63515000D03*
D15*
X89154000Y-75222500D03*
X89154000Y-72097500D03*
D16*
X118110000Y-74930000D03*
X118110000Y-49030000D03*
D17*
X118110000Y-61980000D03*
D18*
X85598000Y-69850000D03*
X87598000Y-69850000D03*
D19*
X113268000Y-82042000D03*
X111268000Y-82042000D03*
D20*
X99154000Y-59055000D03*
X99154000Y-60325000D03*
X99154000Y-61595000D03*
X99154000Y-62865000D03*
X91854000Y-62865000D03*
X91854000Y-61595000D03*
X91854000Y-60325000D03*
X91854000Y-59055000D03*
D18*
X92726000Y-71628000D03*
X94726000Y-71628000D03*
D19*
X110744000Y-51308000D03*
X108744000Y-51308000D03*
X113268000Y-47752000D03*
X111268000Y-47752000D03*
D21*
X105399000Y-73474500D03*
X104749000Y-73474500D03*
X104099000Y-73474500D03*
X103449000Y-73474500D03*
X102799000Y-73474500D03*
X102149000Y-73474500D03*
X101499000Y-73474500D03*
X100849000Y-73474500D03*
X100849000Y-67749500D03*
X101499000Y-67749500D03*
X102149000Y-67749500D03*
X102799000Y-67749500D03*
X103449000Y-67749500D03*
X104099000Y-67749500D03*
X104749000Y-67749500D03*
X105399000Y-67749500D03*
D19*
X89392000Y-48006000D03*
X87392000Y-48006000D03*
D12*
X105410000Y-56928000D03*
X105410000Y-58928000D03*
D19*
X116570000Y-79756000D03*
X114570000Y-79756000D03*
D12*
X87122000Y-51308000D03*
X87122000Y-53308000D03*
D18*
X94758000Y-38354000D03*
X96758000Y-38354000D03*
X106950000Y-82042000D03*
X108950000Y-82042000D03*
D22*
X112014000Y-76708000D03*
X112014000Y-78708000D03*
D12*
X84582000Y-53324000D03*
X84582000Y-51324000D03*
D23*
X92975000Y-49715500D03*
X93625000Y-49715500D03*
X94275000Y-49715500D03*
X94925000Y-49715500D03*
X95575000Y-49715500D03*
X96225000Y-49715500D03*
X96875000Y-49715500D03*
X97525000Y-49715500D03*
X97525000Y-55440500D03*
X96875000Y-55440500D03*
X96225000Y-55440500D03*
X95575000Y-55440500D03*
X94925000Y-55440500D03*
X94275000Y-55440500D03*
X93625000Y-55440500D03*
X92975000Y-55440500D03*
D22*
X108966000Y-76724000D03*
X108966000Y-78724000D03*
D18*
X110506000Y-38608000D03*
X112506000Y-38608000D03*
D22*
X105410000Y-54578000D03*
X105410000Y-52578000D03*
D24*
X107950000Y-37846000D03*
X102870000Y-61722000D03*
X109982000Y-53340000D03*
X117602000Y-58928000D03*
X97663000Y-68707000D03*
X94742000Y-69342000D03*
X101983641Y-64386359D03*
X103378000Y-56896000D03*
X105918000Y-64770000D03*
X107442000Y-56134000D03*
X99060000Y-70104000D03*
X94996000Y-44704000D03*
X96520000Y-64516000D03*
X94742000Y-65532000D03*
X110744000Y-72898000D03*
X114554000Y-45466000D03*
X85852000Y-65786000D03*
X97282000Y-74168000D03*
X87630000Y-77978000D03*
X105918000Y-79756000D03*
X106426000Y-76962000D03*
X124206000Y-49784000D03*
X122428000Y-48260000D03*
X87884000Y-59182000D03*
X96266000Y-52578000D03*
X85852000Y-60198000D03*
X91440000Y-54102000D03*
X90170000Y-53340000D03*
X103124000Y-51816000D03*
X102870000Y-49276000D03*
X107696000Y-49530000D03*
X95758000Y-46482000D03*
X91694000Y-47752000D03*
X91186000Y-41910000D03*
X82296000Y-53594000D03*
X85598000Y-72390000D03*
X108204000Y-84836000D03*
X116840000Y-81534000D03*
X118364000Y-78740000D03*
X117094000Y-42418000D03*
X92710000Y-69596000D03*
X108966000Y-73914000D03*
X112268000Y-74422000D03*
X112522000Y-49276000D03*
X105410000Y-50292000D03*
X103124000Y-58928000D03*
X93472000Y-46482000D03*
X93726000Y-57658000D03*
X88900000Y-55118000D03*
D25*
X108744000Y-47784000D02*
X108712000Y-47752000D01*
X108744000Y-51308000D02*
X108744000Y-47784000D01*
X106934000Y-47752000D02*
X108712000Y-47752000D01*
X108712000Y-47752000D02*
X111268000Y-47752000D01*
X112506000Y-43958000D02*
X111252000Y-45212000D01*
X112506000Y-38608000D02*
X112506000Y-43958000D01*
X111252000Y-45212000D02*
X111268000Y-45228000D01*
X111268000Y-45228000D02*
X111268000Y-47752000D01*
X101362000Y-42180000D02*
X106934000Y-47752000D01*
X108712000Y-38608000D02*
X110506000Y-38608000D01*
X107950000Y-37846000D02*
X108712000Y-38608000D01*
X107918000Y-58960000D02*
X107918000Y-56928000D01*
X105156000Y-61722000D02*
X107918000Y-58960000D01*
X102870000Y-61722000D02*
X105156000Y-61722000D01*
X109982000Y-53340000D02*
X108744000Y-53340000D01*
X108744000Y-53340000D02*
X108744000Y-54324000D01*
X118110000Y-59436000D02*
X117602000Y-58928000D01*
X118110000Y-61980000D02*
X118110000Y-59436000D01*
X108744000Y-51308000D02*
X108744000Y-53340000D01*
X101362000Y-42180000D02*
X96758000Y-42180000D01*
X97790000Y-70104000D02*
X97790000Y-68834000D01*
X97790000Y-68834000D02*
X97663000Y-68707000D01*
X99568000Y-71882000D02*
X97790000Y-70104000D01*
X100838000Y-71882000D02*
X99568000Y-71882000D01*
X100849000Y-71893000D02*
X100838000Y-71882000D01*
X100849000Y-73474500D02*
X100849000Y-71893000D01*
X94742000Y-71612000D02*
X94726000Y-71628000D01*
X94742000Y-69342000D02*
X94742000Y-71612000D01*
X100462282Y-62865000D02*
X101983641Y-64386359D01*
X99154000Y-62865000D02*
X100462282Y-62865000D01*
X95504000Y-43434000D02*
X96758000Y-42180000D01*
X90424000Y-43434000D02*
X95504000Y-43434000D01*
X87392000Y-46466000D02*
X90424000Y-43434000D01*
X96758000Y-42180000D02*
X96758000Y-38354000D01*
X87392000Y-48006000D02*
X87392000Y-46466000D01*
X103346000Y-54578000D02*
X105410000Y-54578000D01*
X98044000Y-52070000D02*
X100838000Y-52070000D01*
X97525000Y-51551000D02*
X98044000Y-52070000D01*
X100838000Y-52070000D02*
X103346000Y-54578000D01*
X97525000Y-49715500D02*
X97525000Y-51551000D01*
X87122000Y-51308000D02*
X87122000Y-49784000D01*
X87122000Y-49784000D02*
X87392000Y-49514000D01*
X84582000Y-50292000D02*
X85090000Y-49784000D01*
X84582000Y-51324000D02*
X84582000Y-50292000D01*
X85090000Y-49784000D02*
X87122000Y-49784000D01*
X87392000Y-49514000D02*
X87392000Y-48006000D01*
X87598000Y-68802000D02*
X87598000Y-69850000D01*
X86360000Y-67564000D02*
X87598000Y-68802000D01*
X84629000Y-67564000D02*
X86360000Y-67564000D01*
X80580000Y-63515000D02*
X84629000Y-67564000D01*
X109982000Y-73914000D02*
X109982000Y-70108000D01*
X110744000Y-74676000D02*
X109982000Y-73914000D01*
X110744000Y-79756000D02*
X110744000Y-74676000D01*
X110744000Y-79756000D02*
X109998000Y-79756000D01*
X109982000Y-70108000D02*
X118110000Y-61980000D01*
X111252000Y-79756000D02*
X110744000Y-79756000D01*
X108744000Y-54324000D02*
X108077000Y-54991000D01*
X108077000Y-54991000D02*
X107664000Y-54578000D01*
X108458000Y-55372000D02*
X108077000Y-54991000D01*
X107664000Y-54578000D02*
X105410000Y-54578000D01*
X108458000Y-56388000D02*
X108458000Y-55372000D01*
X107918000Y-56928000D02*
X108458000Y-56388000D01*
X105410000Y-56928000D02*
X107918000Y-56928000D01*
X112014000Y-79756000D02*
X111252000Y-79756000D01*
X114570000Y-79756000D02*
X112014000Y-79756000D01*
X112014000Y-78708000D02*
X112014000Y-79756000D01*
X111268000Y-82042000D02*
X111268000Y-79772000D01*
X111268000Y-79772000D02*
X111252000Y-79756000D01*
X108950000Y-82042000D02*
X108950000Y-80804000D01*
X108950000Y-80804000D02*
X109998000Y-79756000D01*
X109998000Y-79756000D02*
X108966000Y-78724000D01*
X90462500Y-73406000D02*
X89154000Y-72097500D01*
X94234000Y-73406000D02*
X90462500Y-73406000D01*
X94726000Y-72914000D02*
X94234000Y-73406000D01*
X94726000Y-71628000D02*
X94726000Y-72914000D01*
X89154000Y-72097500D02*
X89154000Y-71406000D01*
X89154000Y-71406000D02*
X87598000Y-69850000D01*
X103378000Y-55626000D02*
X103378000Y-56896000D01*
X103378000Y-55626000D02*
X105918000Y-55626000D01*
X102870000Y-55626000D02*
X103378000Y-55626000D01*
X105399000Y-65289000D02*
X105399000Y-67749500D01*
X105918000Y-64770000D02*
X105399000Y-65289000D01*
X106934000Y-55626000D02*
X107442000Y-56134000D01*
X106680000Y-55626000D02*
X106934000Y-55626000D01*
X105918000Y-55626000D02*
X106680000Y-55626000D01*
X100565000Y-53321000D02*
X102870000Y-55626000D01*
X96875000Y-53763710D02*
X97317710Y-53321000D01*
X96875000Y-55440500D02*
X96875000Y-53763710D01*
X97317710Y-53321000D02*
X100565000Y-53321000D01*
X92975000Y-56885000D02*
X91329500Y-58530500D01*
X91329500Y-58530500D02*
X89530000Y-56731000D01*
X92975000Y-55440500D02*
X92975000Y-56885000D01*
X91854000Y-59055000D02*
X91329500Y-58530500D01*
X101600000Y-70104000D02*
X99060000Y-70104000D01*
X102108000Y-69596000D02*
X101600000Y-70104000D01*
X102108000Y-69596000D02*
X101499000Y-68987000D01*
X102616000Y-70104000D02*
X102108000Y-69596000D01*
X104902000Y-70104000D02*
X102616000Y-70104000D01*
X105399000Y-69607000D02*
X104902000Y-70104000D01*
X101499000Y-68987000D02*
X101499000Y-67749500D01*
X105399000Y-67749500D02*
X105399000Y-69607000D01*
X96019999Y-51308000D02*
X93987999Y-53340000D01*
X96774000Y-51308000D02*
X96019999Y-51308000D01*
X96875000Y-51207000D02*
X96774000Y-51308000D01*
X96875000Y-49715500D02*
X96875000Y-51207000D01*
X87176500Y-75222500D02*
X82042000Y-70088000D01*
X89154000Y-75222500D02*
X87176500Y-75222500D01*
X94996000Y-46498710D02*
X93625000Y-47869710D01*
X94996000Y-44704000D02*
X94996000Y-46498710D01*
X93625000Y-47869710D02*
X93625000Y-49715500D01*
X101075290Y-64516000D02*
X96520000Y-64516000D01*
X102799000Y-66239710D02*
X101075290Y-64516000D01*
X102799000Y-67749500D02*
X102799000Y-66239710D01*
X101346000Y-65532000D02*
X94742000Y-65532000D01*
X102149000Y-67749500D02*
X102149000Y-66335000D01*
X102149000Y-66335000D02*
X101346000Y-65532000D01*
X116078000Y-72898000D02*
X110744000Y-72898000D01*
X118110000Y-74930000D02*
X116078000Y-72898000D01*
X123952000Y-46990000D02*
X125984000Y-49022000D01*
X120150000Y-46990000D02*
X123952000Y-46990000D01*
X125984000Y-67056000D02*
X118110000Y-74930000D01*
X118110000Y-49030000D02*
X120150000Y-46990000D01*
X125984000Y-49022000D02*
X125984000Y-67056000D01*
X79111931Y-65259322D02*
X79213322Y-65259322D01*
X79111931Y-62443069D02*
X79111931Y-65259322D01*
X80580000Y-60975000D02*
X79111931Y-62443069D01*
X79213322Y-65259322D02*
X82042000Y-68088000D01*
X89154000Y-75222500D02*
X91303420Y-77371920D01*
X91303420Y-77371920D02*
X94031229Y-77371920D01*
X124206000Y-52561290D02*
X124206000Y-49784000D01*
X121122290Y-55645000D02*
X124206000Y-52561290D01*
X107188000Y-74659291D02*
X107188000Y-66802000D01*
X107188000Y-66802000D02*
X118345000Y-55645000D01*
X118345000Y-55645000D02*
X121122290Y-55645000D01*
X106401291Y-75446000D02*
X107188000Y-74659291D01*
X105180709Y-75446000D02*
X106401291Y-75446000D01*
X104749000Y-73474500D02*
X104749000Y-75014291D01*
X104749000Y-75014291D02*
X105180709Y-75446000D01*
X114554000Y-54102000D02*
X114554000Y-45466000D01*
X113284000Y-55372000D02*
X114554000Y-54102000D01*
X104749000Y-63907000D02*
X113284000Y-55372000D01*
X104749000Y-67749500D02*
X104749000Y-63907000D01*
X103449000Y-64824291D02*
X103449000Y-67749500D01*
X101581000Y-62956291D02*
X103449000Y-64824291D01*
X101581000Y-62211000D02*
X101581000Y-62956291D01*
X100322000Y-60952000D02*
X99679000Y-61595000D01*
X100322000Y-60952000D02*
X101581000Y-62211000D01*
X101092000Y-60182000D02*
X100322000Y-60952000D01*
X98806000Y-74676000D02*
X98806000Y-72136000D01*
X92456000Y-65786000D02*
X85852000Y-65786000D01*
X99295000Y-75165000D02*
X98806000Y-74676000D01*
X94234000Y-67564000D02*
X92456000Y-65786000D01*
X98806000Y-72136000D02*
X94234000Y-67564000D01*
X101346000Y-75165000D02*
X99568000Y-75165000D01*
X99568000Y-75165000D02*
X99295000Y-75165000D01*
X101499000Y-75012000D02*
X101346000Y-75165000D01*
X101499000Y-73474500D02*
X101499000Y-75012000D01*
X98806000Y-75692000D02*
X97282000Y-74168000D01*
X101854000Y-75692000D02*
X98806000Y-75692000D01*
X102149000Y-75397000D02*
X101854000Y-75692000D01*
X102149000Y-73474500D02*
X102149000Y-75397000D01*
X90678000Y-77978000D02*
X87630000Y-77978000D01*
X91948000Y-79248000D02*
X90678000Y-77978000D01*
X97536000Y-76454000D02*
X94996000Y-78994000D01*
X92710000Y-79248000D02*
X91948000Y-79248000D01*
X94996000Y-78994000D02*
X94742000Y-79248000D01*
X94742000Y-79248000D02*
X92710000Y-79248000D01*
X102362000Y-76454000D02*
X100076000Y-76454000D01*
X100076000Y-76454000D02*
X97536000Y-76454000D01*
X102799000Y-76017000D02*
X102362000Y-76454000D01*
X102799000Y-73474500D02*
X102799000Y-76017000D01*
X105918000Y-77978000D02*
X105918000Y-79756000D01*
X103449000Y-75509000D02*
X105918000Y-77978000D01*
X103449000Y-73474500D02*
X103449000Y-75509000D01*
X90916000Y-46482000D02*
X93472000Y-46482000D01*
X89392000Y-48006000D02*
X90916000Y-46482000D01*
X93218000Y-41910000D02*
X91186000Y-41910000D01*
X94758000Y-38354000D02*
X94758000Y-40370000D01*
X94758000Y-40370000D02*
X93218000Y-41910000D01*
X116316000Y-42418000D02*
X117094000Y-42418000D01*
X113268000Y-47752000D02*
X113268000Y-45466000D01*
X113268000Y-45466000D02*
X116316000Y-42418000D01*
X105951419Y-76962000D02*
X106426000Y-76962000D01*
X104099000Y-75109581D02*
X105951419Y-76962000D01*
X104099000Y-73474500D02*
X104099000Y-75109581D01*
X120904000Y-55118000D02*
X122428000Y-53594000D01*
X118110000Y-55118000D02*
X120904000Y-55118000D01*
X106426000Y-74676000D02*
X106426000Y-66802000D01*
X106426000Y-66802000D02*
X118110000Y-55118000D01*
X122428000Y-53594000D02*
X122428000Y-48260000D01*
X106183000Y-74919000D02*
X106426000Y-74676000D01*
X105399000Y-73474500D02*
X105399000Y-74919000D01*
X105399000Y-74919000D02*
X106183000Y-74919000D01*
X104099000Y-64729000D02*
X104099000Y-67749500D01*
X102108000Y-62738000D02*
X104099000Y-64729000D01*
X99568000Y-53848000D02*
X102108000Y-56388000D01*
X97536000Y-53848000D02*
X99568000Y-53848000D01*
X97525000Y-55440500D02*
X97525000Y-53859000D01*
X97525000Y-53859000D02*
X97536000Y-53848000D01*
X102108000Y-56388000D02*
X102108000Y-62738000D01*
X87884000Y-59182000D02*
X87884000Y-60325000D01*
X87884000Y-60325000D02*
X87364000Y-60325000D01*
X91854000Y-60325000D02*
X87884000Y-60325000D01*
X96225000Y-52619000D02*
X96266000Y-52578000D01*
X96225000Y-55440500D02*
X96225000Y-52619000D01*
X85852000Y-60452000D02*
X85494500Y-60809500D01*
X85852000Y-60198000D02*
X85852000Y-60452000D01*
X85494500Y-60809500D02*
X83120000Y-58435000D01*
X86280000Y-61595000D02*
X85494500Y-60809500D01*
X94973999Y-54102000D02*
X91440000Y-54102000D01*
X95575000Y-54703001D02*
X94973999Y-54102000D01*
X95575000Y-55440500D02*
X95575000Y-54703001D01*
X93987999Y-53340000D02*
X90170000Y-53340000D01*
X99606000Y-48298000D02*
X103124000Y-51816000D01*
X96736000Y-48298000D02*
X97790000Y-48298000D01*
X97790000Y-48298000D02*
X99606000Y-48298000D01*
X96225000Y-48809000D02*
X96736000Y-48298000D01*
X96225000Y-49715500D02*
X96225000Y-48809000D01*
X101365000Y-47771000D02*
X102870000Y-49276000D01*
X95575000Y-48208000D02*
X96012000Y-47771000D01*
X96012000Y-47771000D02*
X101365000Y-47771000D01*
X95575000Y-49715500D02*
X95575000Y-48208000D01*
X95741290Y-47244000D02*
X103886000Y-47244000D01*
X95368645Y-47616645D02*
X95741290Y-47244000D01*
X94925000Y-49715500D02*
X94925000Y-48060290D01*
X94925000Y-48060290D02*
X95368645Y-47616645D01*
X103886000Y-47244000D02*
X105410000Y-47244000D01*
X105410000Y-47244000D02*
X107696000Y-49530000D01*
X94275000Y-47965000D02*
X94275000Y-49715500D01*
X95758000Y-46482000D02*
X94275000Y-47965000D01*
X92975000Y-48271000D02*
X92975000Y-49715500D01*
X92456000Y-47752000D02*
X92975000Y-48271000D01*
X91694000Y-47752000D02*
X92456000Y-47752000D01*
X82296000Y-53594000D02*
X84312000Y-53594000D01*
X84312000Y-53594000D02*
X84582000Y-53324000D01*
X85598000Y-72390000D02*
X85598000Y-69850000D01*
X108204000Y-83296000D02*
X106950000Y-82042000D01*
X108204000Y-84836000D02*
X108204000Y-83296000D01*
X113776000Y-81534000D02*
X113268000Y-82042000D01*
X116840000Y-81534000D02*
X113776000Y-81534000D01*
X117586000Y-78740000D02*
X116570000Y-79756000D01*
X118364000Y-78740000D02*
X117586000Y-78740000D01*
X92710000Y-71612000D02*
X92726000Y-71628000D01*
X92710000Y-69596000D02*
X92710000Y-71612000D01*
X108966000Y-73914000D02*
X108966000Y-76724000D01*
X112268000Y-76454000D02*
X112014000Y-76708000D01*
X112268000Y-74422000D02*
X112268000Y-76454000D01*
X112522000Y-49530000D02*
X110744000Y-51308000D01*
X112522000Y-49276000D02*
X112522000Y-49530000D01*
X105410000Y-50292000D02*
X105410000Y-52578000D01*
X103124000Y-58928000D02*
X105410000Y-58928000D01*
X93726000Y-57658000D02*
X93726000Y-55541500D01*
X93726000Y-55541500D02*
X93625000Y-55440500D01*
X88900000Y-55118000D02*
X88900000Y-55086000D01*
X88900000Y-55086000D02*
X87122000Y-53308000D01*
X99178290Y-56505000D02*
X101092000Y-58418710D01*
X95252001Y-56505000D02*
X99178290Y-56505000D01*
X94925000Y-56177999D02*
X95252001Y-56505000D01*
X99679000Y-61595000D02*
X99154000Y-61595000D01*
X94925000Y-55440500D02*
X94925000Y-56177999D01*
X101092000Y-58418710D02*
X101092000Y-60182000D01*
X100404000Y-59600000D02*
X99679000Y-60325000D01*
X100404000Y-58476000D02*
X100404000Y-59600000D01*
X99078000Y-57150000D02*
X100404000Y-58476000D01*
X94488000Y-57150000D02*
X99078000Y-57150000D01*
X94275000Y-56937000D02*
X94488000Y-57150000D01*
X99679000Y-60325000D02*
X99154000Y-60325000D01*
X94275000Y-55440500D02*
X94275000Y-56937000D01*
X93319000Y-64365000D02*
X83970000Y-64365000D01*
X83970000Y-64365000D02*
X83120000Y-63515000D01*
X98629000Y-59055000D02*
X93319000Y-64365000D01*
X99154000Y-59055000D02*
X98629000Y-59055000D01*
X81724709Y-56731000D02*
X80580000Y-57875709D01*
X89530000Y-56731000D02*
X81724709Y-56731000D01*
X80580000Y-57875709D02*
X80580000Y-58435000D01*
X81943000Y-59798000D02*
X83120000Y-60975000D01*
X84297000Y-57258000D02*
X81943000Y-57258000D01*
X87364000Y-60325000D02*
X84297000Y-57258000D01*
X81943000Y-57258000D02*
X81943000Y-59798000D01*
X91854000Y-61595000D02*
X86280000Y-61595000D01*
X81757000Y-62152000D02*
X80580000Y-60975000D01*
X89891000Y-62152000D02*
X81757000Y-62152000D01*
X91854000Y-62865000D02*
X90604000Y-62865000D01*
X90604000Y-62865000D02*
X89891000Y-62152000D01*
M02*
