%TF.GenerationSoftware,KiCad,Pcbnew,6.0.1+dfsg-1*%
%TF.CreationDate,2022-01-25T10:44:25+01:00*%
%TF.ProjectId,DTimponator-badge,4454696d-706f-46e6-9174-6f722d626164,2.0*%
%TF.SameCoordinates,Original*%
%TF.FileFunction,Soldermask,Top*%
%TF.FilePolarity,Negative*%
%FSLAX46Y46*%
G04 Gerber Fmt 4.6, Leading zero omitted, Abs format (unit mm)*
G04 Created by KiCad (PCBNEW 6.0.1+dfsg-1) date 2022-01-25 10:44:25*
%MOMM*%
%LPD*%
G01*
G04 APERTURE LIST*
G04 Aperture macros list*
%AMRoundRect*
0 Rectangle with rounded corners*
0 $1 Rounding radius*
0 $2 $3 $4 $5 $6 $7 $8 $9 X,Y pos of 4 corners*
0 Add a 4 corners polygon primitive as box body*
4,1,4,$2,$3,$4,$5,$6,$7,$8,$9,$2,$3,0*
0 Add four circle primitives for the rounded corners*
1,1,$1+$1,$2,$3*
1,1,$1+$1,$4,$5*
1,1,$1+$1,$6,$7*
1,1,$1+$1,$8,$9*
0 Add four rect primitives between the rounded corners*
20,1,$1+$1,$2,$3,$4,$5,0*
20,1,$1+$1,$4,$5,$6,$7,0*
20,1,$1+$1,$6,$7,$8,$9,0*
20,1,$1+$1,$8,$9,$2,$3,0*%
%AMHorizOval*
0 Thick line with rounded ends*
0 $1 width*
0 $2 $3 position (X,Y) of the first rounded end (center of the circle)*
0 $4 $5 position (X,Y) of the second rounded end (center of the circle)*
0 Add line between two ends*
20,1,$1,$2,$3,$4,$5,0*
0 Add two circle primitives to create the rounded ends*
1,1,$1,$2,$3*
1,1,$1,$4,$5*%
%AMRotRect*
0 Rectangle, with rotation*
0 The origin of the aperture is its center*
0 $1 length*
0 $2 width*
0 $3 Rotation angle, in degrees counterclockwise*
0 Add horizontal line*
21,1,$1,$2,0,0,$3*%
G04 Aperture macros list end*
%ADD10RoundRect,0.237500X-0.287500X-0.237500X0.287500X-0.237500X0.287500X0.237500X-0.287500X0.237500X0*%
%ADD11RoundRect,0.237500X0.287500X0.237500X-0.287500X0.237500X-0.287500X-0.237500X0.287500X-0.237500X0*%
%ADD12C,2.000000*%
%ADD13C,1.500000*%
%ADD14R,2.000000X2.000000*%
%ADD15HorizOval,2.000000X0.171010X0.469846X-0.171010X-0.469846X0*%
%ADD16RotRect,1.524000X1.524000X160.000000*%
%ADD17C,1.524000*%
G04 APERTURE END LIST*
D10*
X115965000Y-64516000D03*
X117715000Y-64516000D03*
D11*
X156323000Y-135128000D03*
X154573000Y-135128000D03*
D10*
X170575000Y-72390000D03*
X172325000Y-72390000D03*
D11*
X194931000Y-66040000D03*
X193181000Y-66040000D03*
D10*
X131205000Y-72390000D03*
X132955000Y-72390000D03*
X138585000Y-67310000D03*
X140335000Y-67310000D03*
X171845000Y-66040000D03*
X173595000Y-66040000D03*
X195213000Y-107696000D03*
X196963000Y-107696000D03*
X154065000Y-42672000D03*
X155815000Y-42672000D03*
X164860000Y-62230000D03*
X166610000Y-62230000D03*
X145810000Y-86995000D03*
X147560000Y-86995000D03*
X146205000Y-74295000D03*
X147955000Y-74295000D03*
X130570000Y-84455000D03*
X132320000Y-84455000D03*
D11*
X114808000Y-108204000D03*
X113058000Y-108204000D03*
D10*
X159780000Y-67945000D03*
X161530000Y-67945000D03*
X135890000Y-90170000D03*
X137640000Y-90170000D03*
D12*
X121845000Y-114645000D03*
X128345000Y-114645000D03*
X128345000Y-110145000D03*
X121845000Y-110145000D03*
D13*
X159339999Y-108966001D03*
X145339999Y-117066001D03*
X159339999Y-125166001D03*
D14*
X154939999Y-131066001D03*
D12*
X154939999Y-111066001D03*
D15*
X134577260Y-129762971D03*
X142282740Y-132567537D03*
D16*
X140309385Y-131849294D03*
D17*
X138430000Y-131165254D03*
X136550615Y-130481214D03*
M02*
