%TF.GenerationSoftware,KiCad,Pcbnew,7.0.9*%
%TF.CreationDate,2023-12-12T13:48:37+01:00*%
%TF.ProjectId,DTimponator-badge,4454696d-706f-46e6-9174-6f722d626164,2.1*%
%TF.SameCoordinates,Original*%
%TF.FileFunction,Copper,L1,Top*%
%TF.FilePolarity,Positive*%
%FSLAX46Y46*%
G04 Gerber Fmt 4.6, Leading zero omitted, Abs format (unit mm)*
G04 Created by KiCad (PCBNEW 7.0.9) date 2023-12-12 13:48:37*
%MOMM*%
%LPD*%
G01*
G04 APERTURE LIST*
G04 Aperture macros list*
%AMRoundRect*
0 Rectangle with rounded corners*
0 $1 Rounding radius*
0 $2 $3 $4 $5 $6 $7 $8 $9 X,Y pos of 4 corners*
0 Add a 4 corners polygon primitive as box body*
4,1,4,$2,$3,$4,$5,$6,$7,$8,$9,$2,$3,0*
0 Add four circle primitives for the rounded corners*
1,1,$1+$1,$2,$3*
1,1,$1+$1,$4,$5*
1,1,$1+$1,$6,$7*
1,1,$1+$1,$8,$9*
0 Add four rect primitives between the rounded corners*
20,1,$1+$1,$2,$3,$4,$5,0*
20,1,$1+$1,$4,$5,$6,$7,0*
20,1,$1+$1,$6,$7,$8,$9,0*
20,1,$1+$1,$8,$9,$2,$3,0*%
G04 Aperture macros list end*
%TA.AperFunction,ComponentPad*%
%ADD10C,2.000000*%
%TD*%
%TA.AperFunction,ComponentPad*%
%ADD11C,1.700000*%
%TD*%
%TA.AperFunction,ComponentPad*%
%ADD12R,1.700000X1.700000*%
%TD*%
%TA.AperFunction,ComponentPad*%
%ADD13O,1.700000X1.700000*%
%TD*%
%TA.AperFunction,SMDPad,CuDef*%
%ADD14RoundRect,0.237500X0.287500X0.237500X-0.287500X0.237500X-0.287500X-0.237500X0.287500X-0.237500X0*%
%TD*%
%TA.AperFunction,SMDPad,CuDef*%
%ADD15RoundRect,0.237500X-0.287500X-0.237500X0.287500X-0.237500X0.287500X0.237500X-0.287500X0.237500X0*%
%TD*%
%TA.AperFunction,ViaPad*%
%ADD16C,0.800000*%
%TD*%
%TA.AperFunction,Conductor*%
%ADD17C,0.400000*%
%TD*%
G04 APERTURE END LIST*
D10*
X92750379Y-75043417D03*
X101974570Y-84785815D03*
X104026690Y-79147659D03*
X90698258Y-80681573D03*
D11*
X101548770Y-80108081D03*
X97790000Y-78740000D03*
X94031229Y-77371920D03*
D12*
X83120000Y-58435000D03*
D13*
X80580000Y-58435000D03*
X83120000Y-60975000D03*
X80580000Y-60975000D03*
X83120000Y-63515000D03*
X80580000Y-63515000D03*
D14*
X123049000Y-76708000D03*
X121299000Y-76708000D03*
X85457000Y-74676000D03*
X83707000Y-74676000D03*
X92315000Y-67818000D03*
X90565000Y-67818000D03*
X89013000Y-43180000D03*
X87263000Y-43180000D03*
X93331000Y-50546000D03*
X91581000Y-50546000D03*
D15*
X93980000Y-61214000D03*
X92230000Y-61214000D03*
D14*
X105015000Y-36576000D03*
X103265000Y-36576000D03*
X79897000Y-55880000D03*
X81647000Y-55880000D03*
X128891000Y-60198000D03*
X127141000Y-60198000D03*
X122287000Y-44704000D03*
X120537000Y-44704000D03*
D15*
X113820000Y-51308000D03*
X115570000Y-51308000D03*
D14*
X115683000Y-68580000D03*
X113933000Y-68580000D03*
X100189000Y-58928000D03*
X98439000Y-58928000D03*
X106031000Y-85598000D03*
X104281000Y-85598000D03*
X105015000Y-72390000D03*
X103265000Y-72390000D03*
X107047000Y-47244000D03*
X105297000Y-47244000D03*
D16*
X107950000Y-37846000D03*
X102870000Y-61722000D03*
X109982000Y-53340000D03*
X117602000Y-58928000D03*
X97663000Y-68707000D03*
X94742000Y-69342000D03*
X101983641Y-64386359D03*
X103378000Y-56896000D03*
X105918000Y-64770000D03*
X107442000Y-56134000D03*
X99060000Y-70104000D03*
X94996000Y-44704000D03*
X96520000Y-64516000D03*
X94742000Y-65532000D03*
X110744000Y-72898000D03*
X114554000Y-45466000D03*
X85852000Y-65786000D03*
X97282000Y-74168000D03*
X87630000Y-77978000D03*
X105918000Y-79756000D03*
X106426000Y-76962000D03*
X124206000Y-49784000D03*
X122428000Y-48260000D03*
X87884000Y-59182000D03*
X96266000Y-52578000D03*
X85852000Y-60198000D03*
X91440000Y-54102000D03*
X90170000Y-53340000D03*
X103124000Y-51816000D03*
X102870000Y-49276000D03*
X107696000Y-49530000D03*
X95758000Y-46482000D03*
X91694000Y-47752000D03*
X91186000Y-41910000D03*
X82296000Y-53594000D03*
X85598000Y-72390000D03*
X108204000Y-84836000D03*
X116840000Y-81534000D03*
X118364000Y-78740000D03*
X117094000Y-42418000D03*
X92710000Y-69596000D03*
X108966000Y-73914000D03*
X112268000Y-74422000D03*
X112522000Y-49276000D03*
X105410000Y-50292000D03*
X103124000Y-58928000D03*
X93472000Y-46482000D03*
X93726000Y-57658000D03*
X88900000Y-55118000D03*
D17*
X106680000Y-36576000D02*
X107950000Y-37846000D01*
X105015000Y-36576000D02*
X106680000Y-36576000D01*
X101983641Y-62608359D02*
X102870000Y-61722000D01*
X101983641Y-64386359D02*
X101983641Y-62608359D01*
X117602000Y-58928000D02*
X112014000Y-53340000D01*
X112014000Y-53340000D02*
X109982000Y-53340000D01*
X97028000Y-69342000D02*
X94742000Y-69342000D01*
X101983641Y-64386359D02*
X97028000Y-69342000D01*
X81757000Y-63977000D02*
X81757000Y-59612000D01*
X83725291Y-64692000D02*
X82472000Y-64692000D01*
X89356291Y-70323000D02*
X83725291Y-64692000D01*
X82472000Y-64692000D02*
X81757000Y-63977000D01*
X81757000Y-59612000D02*
X80580000Y-58435000D01*
X98841000Y-70323000D02*
X89356291Y-70323000D01*
X99060000Y-70104000D02*
X98841000Y-70323000D01*
X99060000Y-70120710D02*
X99060000Y-70104000D01*
X103851000Y-65329710D02*
X99060000Y-70120710D01*
X103851000Y-57369000D02*
X103851000Y-65329710D01*
X103378000Y-56896000D02*
X103851000Y-57369000D01*
X107442000Y-63246000D02*
X105918000Y-64770000D01*
X107442000Y-56134000D02*
X107442000Y-63246000D01*
X96110080Y-77371920D02*
X94031229Y-77371920D01*
X99060000Y-74422000D02*
X96110080Y-77371920D01*
X99060000Y-70104000D02*
X99060000Y-74422000D01*
X94996000Y-46748134D02*
X94996000Y-44704000D01*
X98439000Y-50191134D02*
X94996000Y-46748134D01*
X98439000Y-58928000D02*
X98439000Y-50191134D01*
X92456000Y-54102000D02*
X91440000Y-54102000D01*
X95504000Y-51054000D02*
X92456000Y-54102000D01*
X97282000Y-51054000D02*
X95504000Y-51054000D01*
X97536000Y-53340000D02*
X97536000Y-51308000D01*
X96520000Y-54356000D02*
X97536000Y-53340000D01*
X96520000Y-64516000D02*
X96520000Y-54356000D01*
X97536000Y-51308000D02*
X97282000Y-51054000D01*
X94234000Y-65532000D02*
X87884000Y-59182000D01*
X94742000Y-65532000D02*
X94234000Y-65532000D01*
X100838000Y-75692000D02*
X97790000Y-78740000D01*
X109474000Y-75692000D02*
X100838000Y-75692000D01*
X110744000Y-74422000D02*
X109474000Y-75692000D01*
X110744000Y-72898000D02*
X110744000Y-74422000D01*
X103265000Y-37987000D02*
X103265000Y-36576000D01*
X110744000Y-45466000D02*
X103265000Y-37987000D01*
X114554000Y-45466000D02*
X110744000Y-45466000D01*
X87263000Y-52453710D02*
X87263000Y-43180000D01*
X84836000Y-54880710D02*
X87263000Y-52453710D01*
X84836000Y-64770000D02*
X84836000Y-54880710D01*
X85852000Y-65786000D02*
X84836000Y-64770000D01*
X79111104Y-56665896D02*
X79897000Y-55880000D01*
X79111104Y-65141104D02*
X79111104Y-56665896D01*
X80264000Y-66294000D02*
X79111104Y-65141104D01*
X90678000Y-72390000D02*
X84582000Y-66294000D01*
X95504000Y-72390000D02*
X90678000Y-72390000D01*
X97282000Y-74168000D02*
X95504000Y-72390000D01*
X84582000Y-66294000D02*
X80264000Y-66294000D01*
X87630000Y-77978000D02*
X87009000Y-77978000D01*
X87009000Y-77978000D02*
X83707000Y-74676000D01*
X105918000Y-79756000D02*
X104281000Y-81393000D01*
X104281000Y-81393000D02*
X104281000Y-85598000D01*
X121299000Y-77075000D02*
X121299000Y-76708000D01*
X117856000Y-80518000D02*
X121299000Y-77075000D01*
X109982000Y-80518000D02*
X117856000Y-80518000D01*
X106426000Y-76962000D02*
X109982000Y-80518000D01*
X127141000Y-52719000D02*
X127141000Y-60198000D01*
X124206000Y-49784000D02*
X127141000Y-52719000D01*
X122428000Y-48260000D02*
X120537000Y-46369000D01*
X120537000Y-46369000D02*
X120537000Y-44704000D01*
X87884000Y-54883000D02*
X87884000Y-59182000D01*
X88376000Y-54391000D02*
X87884000Y-54883000D01*
X94015000Y-54829000D02*
X89881000Y-54829000D01*
X89443000Y-54391000D02*
X88376000Y-54391000D01*
X96266000Y-52578000D02*
X94015000Y-54829000D01*
X89881000Y-54829000D02*
X89443000Y-54391000D01*
X85852000Y-54610000D02*
X85852000Y-60198000D01*
X88392000Y-52070000D02*
X85852000Y-54610000D01*
X91440000Y-54102000D02*
X91440000Y-53086000D01*
X90424000Y-52070000D02*
X88392000Y-52070000D01*
X91440000Y-53086000D02*
X90424000Y-52070000D01*
X87122000Y-54864000D02*
X87122000Y-65786000D01*
X87122000Y-65786000D02*
X89154000Y-67818000D01*
X89154000Y-67818000D02*
X90565000Y-67818000D01*
X88646000Y-53340000D02*
X87122000Y-54864000D01*
X90170000Y-53340000D02*
X88646000Y-53340000D01*
X103265000Y-66661000D02*
X103265000Y-72390000D01*
X104648000Y-53340000D02*
X104648000Y-65278000D01*
X103124000Y-51816000D02*
X104648000Y-53340000D01*
X104648000Y-65278000D02*
X103265000Y-66661000D01*
X102870000Y-49276000D02*
X113933000Y-60339000D01*
X113933000Y-60339000D02*
X113933000Y-68580000D01*
X115570000Y-50546000D02*
X115570000Y-51308000D01*
X113030000Y-48006000D02*
X115570000Y-50546000D01*
X111760000Y-48006000D02*
X113030000Y-48006000D01*
X110236000Y-49530000D02*
X111760000Y-48006000D01*
X107696000Y-49530000D02*
X110236000Y-49530000D01*
X96520000Y-47244000D02*
X95758000Y-46482000D01*
X105297000Y-47244000D02*
X96520000Y-47244000D01*
X91581000Y-47865000D02*
X91694000Y-47752000D01*
X91581000Y-50546000D02*
X91581000Y-47865000D01*
X89916000Y-43180000D02*
X91186000Y-41910000D01*
X89013000Y-43180000D02*
X89916000Y-43180000D01*
X81647000Y-54243000D02*
X82296000Y-53594000D01*
X81647000Y-55880000D02*
X81647000Y-54243000D01*
X85457000Y-72531000D02*
X85598000Y-72390000D01*
X85457000Y-74676000D02*
X85457000Y-72531000D01*
X107442000Y-85598000D02*
X108204000Y-84836000D01*
X106031000Y-85598000D02*
X107442000Y-85598000D01*
X118223000Y-81534000D02*
X116840000Y-81534000D01*
X123049000Y-76708000D02*
X118223000Y-81534000D01*
X118364000Y-72136000D02*
X118364000Y-74676000D01*
X124968000Y-65532000D02*
X118364000Y-72136000D01*
X118364000Y-74676000D02*
X118364000Y-78740000D01*
X128891000Y-61609000D02*
X124968000Y-65532000D01*
X128891000Y-60198000D02*
X128891000Y-61609000D01*
X120650000Y-42418000D02*
X117094000Y-42418000D01*
X122287000Y-44055000D02*
X120650000Y-42418000D01*
X122287000Y-44704000D02*
X122287000Y-44055000D01*
X92315000Y-69201000D02*
X92710000Y-69596000D01*
X92315000Y-67818000D02*
X92315000Y-69201000D01*
X107442000Y-72390000D02*
X108966000Y-73914000D01*
X105015000Y-72390000D02*
X107442000Y-72390000D01*
X115683000Y-71007000D02*
X112268000Y-74422000D01*
X115683000Y-68580000D02*
X115683000Y-71007000D01*
X113820000Y-50574000D02*
X112522000Y-49276000D01*
X113820000Y-51308000D02*
X113820000Y-50574000D01*
X107047000Y-48655000D02*
X105410000Y-50292000D01*
X107047000Y-47244000D02*
X107047000Y-48655000D01*
X100189000Y-58928000D02*
X103124000Y-58928000D01*
X93331000Y-46623000D02*
X93472000Y-46482000D01*
X93331000Y-50546000D02*
X93331000Y-46623000D01*
X93980000Y-57912000D02*
X93726000Y-57658000D01*
X93980000Y-61214000D02*
X93980000Y-57912000D01*
X92230000Y-58448000D02*
X88900000Y-55118000D01*
X92230000Y-61214000D02*
X92230000Y-58448000D01*
M02*
