M48
; DRILL file {KiCad 7.0.9} date Tue Dec 12 13:48:52 2023
; FORMAT={-:-/ absolute / inch / decimal}
; #@! TF.CreationDate,2023-12-12T13:48:52+01:00
; #@! TF.GenerationSoftware,Kicad,Pcbnew,7.0.9
; #@! TF.FileFunction,Plated,1,2,PTH
FMAT,2
INCH
; #@! TA.AperFunction,Plated,PTH,ViaDrill
T1C0.0157
; #@! TA.AperFunction,Plated,PTH,ComponentDrill
T2C0.0354
; #@! TA.AperFunction,Plated,PTH,ComponentDrill
T3C0.0394
; #@! TA.AperFunction,Plated,PTH,ComponentDrill
T4C0.0472
%
G90
G05
T1
X3.24Y-2.11
X3.37Y-2.85
X3.38Y-2.37
X3.38Y-2.59
X3.45Y-3.07
X3.46Y-2.33
X3.5Y-2.17
X3.55Y-2.1
X3.59Y-1.65
X3.6Y-2.13
X3.61Y-1.88
X3.65Y-2.74
X3.68Y-1.83
X3.69Y-2.27
X3.73Y-2.58
X3.73Y-2.73
X3.74Y-1.76
X3.77Y-1.83
X3.79Y-2.07
X3.8Y-2.54
X3.83Y-2.92
X3.845Y-2.705
X3.9Y-2.76
X4.0151Y-2.5349
X4.05Y-1.94
X4.05Y-2.43
X4.06Y-2.04
X4.06Y-2.32
X4.07Y-2.24
X4.15Y-1.98
X4.17Y-2.55
X4.17Y-3.14
X4.19Y-3.03
X4.23Y-2.21
X4.24Y-1.95
X4.25Y-1.49
X4.26Y-3.34
X4.29Y-2.91
X4.33Y-2.1
X4.36Y-2.87
X4.42Y-2.93
X4.43Y-1.94
X4.51Y-1.79
X4.6Y-3.21
X4.61Y-1.67
X4.63Y-2.32
X4.66Y-3.1
X4.82Y-1.9
X4.89Y-1.96
T2
X3.702Y-3.0461
X3.85Y-3.1
X3.998Y-3.1539
T3
X3.1724Y-2.3006
X3.1724Y-2.4006
X3.1724Y-2.5006
X3.2724Y-2.3006
X3.2724Y-2.4006
X3.2724Y-2.5006
T4
X3.5708Y-3.1764
X3.6516Y-2.9545
X4.0147Y-3.338
X4.0955Y-3.116
T0
M30
