%TF.GenerationSoftware,KiCad,Pcbnew,6.0.1+dfsg-1*%
%TF.CreationDate,2022-01-25T10:44:25+01:00*%
%TF.ProjectId,DTimponator-badge,4454696d-706f-46e6-9174-6f722d626164,2.0*%
%TF.SameCoordinates,Original*%
%TF.FileFunction,Legend,Bot*%
%TF.FilePolarity,Positive*%
%FSLAX46Y46*%
G04 Gerber Fmt 4.6, Leading zero omitted, Abs format (unit mm)*
G04 Created by KiCad (PCBNEW 6.0.1+dfsg-1) date 2022-01-25 10:44:25*
%MOMM*%
%LPD*%
G01*
G04 APERTURE LIST*
G04 Aperture macros list*
%AMRoundRect*
0 Rectangle with rounded corners*
0 $1 Rounding radius*
0 $2 $3 $4 $5 $6 $7 $8 $9 X,Y pos of 4 corners*
0 Add a 4 corners polygon primitive as box body*
4,1,4,$2,$3,$4,$5,$6,$7,$8,$9,$2,$3,0*
0 Add four circle primitives for the rounded corners*
1,1,$1+$1,$2,$3*
1,1,$1+$1,$4,$5*
1,1,$1+$1,$6,$7*
1,1,$1+$1,$8,$9*
0 Add four rect primitives between the rounded corners*
20,1,$1+$1,$2,$3,$4,$5,0*
20,1,$1+$1,$4,$5,$6,$7,0*
20,1,$1+$1,$6,$7,$8,$9,0*
20,1,$1+$1,$8,$9,$2,$3,0*%
%AMHorizOval*
0 Thick line with rounded ends*
0 $1 width*
0 $2 $3 position (X,Y) of the first rounded end (center of the circle)*
0 $4 $5 position (X,Y) of the second rounded end (center of the circle)*
0 Add line between two ends*
20,1,$1,$2,$3,$4,$5,0*
0 Add two circle primitives to create the rounded ends*
1,1,$1,$2,$3*
1,1,$1,$4,$5*%
%AMRotRect*
0 Rectangle, with rotation*
0 The origin of the aperture is its center*
0 $1 length*
0 $2 width*
0 $3 Rotation angle, in degrees counterclockwise*
0 Add horizontal line*
21,1,$1,$2,0,0,$3*%
G04 Aperture macros list end*
%ADD10C,2.000000*%
%ADD11C,0.500000*%
%ADD12C,0.150000*%
%ADD13C,0.120000*%
%ADD14RoundRect,0.250000X0.450000X-0.350000X0.450000X0.350000X-0.450000X0.350000X-0.450000X-0.350000X0*%
%ADD15RoundRect,0.250000X-0.450000X0.350000X-0.450000X-0.350000X0.450000X-0.350000X0.450000X0.350000X0*%
%ADD16R,1.700000X0.650000*%
%ADD17RoundRect,0.250000X0.350000X0.450000X-0.350000X0.450000X-0.350000X-0.450000X0.350000X-0.450000X0*%
%ADD18RoundRect,0.100000X0.637500X0.100000X-0.637500X0.100000X-0.637500X-0.100000X0.637500X-0.100000X0*%
%ADD19C,2.000000*%
%ADD20RoundRect,0.250000X-0.412500X-0.650000X0.412500X-0.650000X0.412500X0.650000X-0.412500X0.650000X0*%
%ADD21RoundRect,0.250000X-0.350000X-0.450000X0.350000X-0.450000X0.350000X0.450000X-0.350000X0.450000X0*%
%ADD22C,1.500000*%
%ADD23R,2.000000X2.000000*%
%ADD24RoundRect,0.100000X-0.637500X-0.100000X0.637500X-0.100000X0.637500X0.100000X-0.637500X0.100000X0*%
%ADD25R,3.150000X1.000000*%
%ADD26HorizOval,2.000000X0.171010X0.469846X-0.171010X-0.469846X0*%
%ADD27RotRect,1.524000X1.524000X160.000000*%
%ADD28C,1.524000*%
G04 APERTURE END LIST*
D10*
X124460000Y-53848000D02*
X184912000Y-53848000D01*
X184912000Y-53848000D02*
X184912000Y-66040000D01*
X184912000Y-66040000D02*
X124460000Y-66040000D01*
X124460000Y-66040000D02*
X124460000Y-53848000D01*
D11*
X173805142Y-59729714D02*
X173376571Y-59872571D01*
X173233714Y-60015428D01*
X173090857Y-60301142D01*
X173090857Y-60729714D01*
X173233714Y-61015428D01*
X173376571Y-61158285D01*
X173662285Y-61301142D01*
X174805142Y-61301142D01*
X174805142Y-58301142D01*
X173805142Y-58301142D01*
X173519428Y-58444000D01*
X173376571Y-58586857D01*
X173233714Y-58872571D01*
X173233714Y-59158285D01*
X173376571Y-59444000D01*
X173519428Y-59586857D01*
X173805142Y-59729714D01*
X174805142Y-59729714D01*
X170519428Y-59301142D02*
X170519428Y-61301142D01*
X171805142Y-59301142D02*
X171805142Y-60872571D01*
X171662285Y-61158285D01*
X171376571Y-61301142D01*
X170948000Y-61301142D01*
X170662285Y-61158285D01*
X170519428Y-61015428D01*
X169519428Y-59301142D02*
X168376571Y-59301142D01*
X169090857Y-58301142D02*
X169090857Y-60872571D01*
X168948000Y-61158285D01*
X168662285Y-61301142D01*
X168376571Y-61301142D01*
X167805142Y-59301142D02*
X166662285Y-59301142D01*
X167376571Y-58301142D02*
X167376571Y-60872571D01*
X167233714Y-61158285D01*
X166948000Y-61301142D01*
X166662285Y-61301142D01*
X165233714Y-61301142D02*
X165519428Y-61158285D01*
X165662285Y-61015428D01*
X165805142Y-60729714D01*
X165805142Y-59872571D01*
X165662285Y-59586857D01*
X165519428Y-59444000D01*
X165233714Y-59301142D01*
X164805142Y-59301142D01*
X164519428Y-59444000D01*
X164376571Y-59586857D01*
X164233714Y-59872571D01*
X164233714Y-60729714D01*
X164376571Y-61015428D01*
X164519428Y-61158285D01*
X164805142Y-61301142D01*
X165233714Y-61301142D01*
X162948000Y-59301142D02*
X162948000Y-61301142D01*
X162948000Y-59586857D02*
X162805142Y-59444000D01*
X162519428Y-59301142D01*
X162090857Y-59301142D01*
X161805142Y-59444000D01*
X161662285Y-59729714D01*
X161662285Y-61301142D01*
X160233714Y-59301142D02*
X160233714Y-61301142D01*
X160233714Y-59586857D02*
X160090857Y-59444000D01*
X159805142Y-59301142D01*
X159376571Y-59301142D01*
X159090857Y-59444000D01*
X158948000Y-59729714D01*
X158948000Y-61301142D01*
X156233714Y-61301142D02*
X156233714Y-59729714D01*
X156376571Y-59444000D01*
X156662285Y-59301142D01*
X157233714Y-59301142D01*
X157519428Y-59444000D01*
X156233714Y-61158285D02*
X156519428Y-61301142D01*
X157233714Y-61301142D01*
X157519428Y-61158285D01*
X157662285Y-60872571D01*
X157662285Y-60586857D01*
X157519428Y-60301142D01*
X157233714Y-60158285D01*
X156519428Y-60158285D01*
X156233714Y-60015428D01*
X156948000Y-58586857D02*
X157233714Y-58444000D01*
X157376571Y-58158285D01*
X157233714Y-57872571D01*
X156948000Y-57729714D01*
X156662285Y-57872571D01*
X156519428Y-58158285D01*
X156662285Y-58444000D01*
X156948000Y-58586857D01*
X154376571Y-61301142D02*
X154662285Y-61158285D01*
X154805142Y-60872571D01*
X154805142Y-58301142D01*
X153662285Y-59301142D02*
X152519428Y-59301142D01*
X153233714Y-61301142D02*
X153233714Y-58729714D01*
X153090857Y-58444000D01*
X152805142Y-58301142D01*
X152519428Y-58301142D01*
X150376571Y-61158285D02*
X150662285Y-61301142D01*
X151233714Y-61301142D01*
X151519428Y-61158285D01*
X151662285Y-60872571D01*
X151662285Y-59729714D01*
X151519428Y-59444000D01*
X151233714Y-59301142D01*
X150662285Y-59301142D01*
X150376571Y-59444000D01*
X150233714Y-59729714D01*
X150233714Y-60015428D01*
X151662285Y-60301142D01*
X149090857Y-61158285D02*
X148805142Y-61301142D01*
X148233714Y-61301142D01*
X147948000Y-61158285D01*
X147805142Y-60872571D01*
X147805142Y-60729714D01*
X147948000Y-60444000D01*
X148233714Y-60301142D01*
X148662285Y-60301142D01*
X148948000Y-60158285D01*
X149090857Y-59872571D01*
X149090857Y-59729714D01*
X148948000Y-59444000D01*
X148662285Y-59301142D01*
X148233714Y-59301142D01*
X147948000Y-59444000D01*
X146948000Y-59301142D02*
X145805142Y-59301142D01*
X146519428Y-58301142D02*
X146519428Y-60872571D01*
X146376571Y-61158285D01*
X146090857Y-61301142D01*
X145805142Y-61301142D01*
X143662285Y-61158285D02*
X143948000Y-61301142D01*
X144519428Y-61301142D01*
X144805142Y-61158285D01*
X144948000Y-60872571D01*
X144948000Y-59729714D01*
X144805142Y-59444000D01*
X144519428Y-59301142D01*
X143948000Y-59301142D01*
X143662285Y-59444000D01*
X143519428Y-59729714D01*
X143519428Y-60015428D01*
X144948000Y-60301142D01*
X142662285Y-59301142D02*
X141519428Y-59301142D01*
X142233714Y-61301142D02*
X142233714Y-58729714D01*
X142090857Y-58444000D01*
X141805142Y-58301142D01*
X141519428Y-58301142D01*
X139376571Y-61158285D02*
X139662285Y-61301142D01*
X140233714Y-61301142D01*
X140519428Y-61158285D01*
X140662285Y-60872571D01*
X140662285Y-59729714D01*
X140519428Y-59444000D01*
X140233714Y-59301142D01*
X139662285Y-59301142D01*
X139376571Y-59444000D01*
X139233714Y-59729714D01*
X139233714Y-60015428D01*
X140662285Y-60301142D01*
X137519428Y-61301142D02*
X137805142Y-61158285D01*
X137948000Y-60872571D01*
X137948000Y-58301142D01*
X136805142Y-59301142D02*
X135662285Y-59301142D01*
X136376571Y-58301142D02*
X136376571Y-60872571D01*
X136233714Y-61158285D01*
X135948000Y-61301142D01*
X135662285Y-61301142D01*
D12*
X167202380Y-129405142D02*
X166726190Y-129071809D01*
X167202380Y-128833714D02*
X166202380Y-128833714D01*
X166202380Y-129214666D01*
X166250000Y-129309904D01*
X166297619Y-129357523D01*
X166392857Y-129405142D01*
X166535714Y-129405142D01*
X166630952Y-129357523D01*
X166678571Y-129309904D01*
X166726190Y-129214666D01*
X166726190Y-128833714D01*
X167202380Y-130357523D02*
X167202380Y-129786095D01*
X167202380Y-130071809D02*
X166202380Y-130071809D01*
X166345238Y-129976571D01*
X166440476Y-129881333D01*
X166488095Y-129786095D01*
X166202380Y-131262285D02*
X166202380Y-130786095D01*
X166678571Y-130738476D01*
X166630952Y-130786095D01*
X166583333Y-130881333D01*
X166583333Y-131119428D01*
X166630952Y-131214666D01*
X166678571Y-131262285D01*
X166773809Y-131309904D01*
X167011904Y-131309904D01*
X167107142Y-131262285D01*
X167154761Y-131214666D01*
X167202380Y-131119428D01*
X167202380Y-130881333D01*
X167154761Y-130786095D01*
X167107142Y-130738476D01*
X113610380Y-71477142D02*
X113134190Y-71143809D01*
X113610380Y-70905714D02*
X112610380Y-70905714D01*
X112610380Y-71286666D01*
X112658000Y-71381904D01*
X112705619Y-71429523D01*
X112800857Y-71477142D01*
X112943714Y-71477142D01*
X113038952Y-71429523D01*
X113086571Y-71381904D01*
X113134190Y-71286666D01*
X113134190Y-70905714D01*
X113610380Y-72429523D02*
X113610380Y-71858095D01*
X113610380Y-72143809D02*
X112610380Y-72143809D01*
X112753238Y-72048571D01*
X112848476Y-71953333D01*
X112896095Y-71858095D01*
X112610380Y-72762857D02*
X112610380Y-73381904D01*
X112991333Y-73048571D01*
X112991333Y-73191428D01*
X113038952Y-73286666D01*
X113086571Y-73334285D01*
X113181809Y-73381904D01*
X113419904Y-73381904D01*
X113515142Y-73334285D01*
X113562761Y-73286666D01*
X113610380Y-73191428D01*
X113610380Y-72905714D01*
X113562761Y-72810476D01*
X113515142Y-72762857D01*
X166298666Y-68398380D02*
X166632000Y-67922190D01*
X166870095Y-68398380D02*
X166870095Y-67398380D01*
X166489142Y-67398380D01*
X166393904Y-67446000D01*
X166346285Y-67493619D01*
X166298666Y-67588857D01*
X166298666Y-67731714D01*
X166346285Y-67826952D01*
X166393904Y-67874571D01*
X166489142Y-67922190D01*
X166870095Y-67922190D01*
X165727238Y-67826952D02*
X165822476Y-67779333D01*
X165870095Y-67731714D01*
X165917714Y-67636476D01*
X165917714Y-67588857D01*
X165870095Y-67493619D01*
X165822476Y-67446000D01*
X165727238Y-67398380D01*
X165536761Y-67398380D01*
X165441523Y-67446000D01*
X165393904Y-67493619D01*
X165346285Y-67588857D01*
X165346285Y-67636476D01*
X165393904Y-67731714D01*
X165441523Y-67779333D01*
X165536761Y-67826952D01*
X165727238Y-67826952D01*
X165822476Y-67874571D01*
X165870095Y-67922190D01*
X165917714Y-68017428D01*
X165917714Y-68207904D01*
X165870095Y-68303142D01*
X165822476Y-68350761D01*
X165727238Y-68398380D01*
X165536761Y-68398380D01*
X165441523Y-68350761D01*
X165393904Y-68303142D01*
X165346285Y-68207904D01*
X165346285Y-68017428D01*
X165393904Y-67922190D01*
X165441523Y-67874571D01*
X165536761Y-67826952D01*
X140771666Y-82622380D02*
X141105000Y-82146190D01*
X141343095Y-82622380D02*
X141343095Y-81622380D01*
X140962142Y-81622380D01*
X140866904Y-81670000D01*
X140819285Y-81717619D01*
X140771666Y-81812857D01*
X140771666Y-81955714D01*
X140819285Y-82050952D01*
X140866904Y-82098571D01*
X140962142Y-82146190D01*
X141343095Y-82146190D01*
X139866904Y-81622380D02*
X140343095Y-81622380D01*
X140390714Y-82098571D01*
X140343095Y-82050952D01*
X140247857Y-82003333D01*
X140009761Y-82003333D01*
X139914523Y-82050952D01*
X139866904Y-82098571D01*
X139819285Y-82193809D01*
X139819285Y-82431904D01*
X139866904Y-82527142D01*
X139914523Y-82574761D01*
X140009761Y-82622380D01*
X140247857Y-82622380D01*
X140343095Y-82574761D01*
X140390714Y-82527142D01*
X160138857Y-49094380D02*
X160472190Y-48618190D01*
X160710285Y-49094380D02*
X160710285Y-48094380D01*
X160329333Y-48094380D01*
X160234095Y-48142000D01*
X160186476Y-48189619D01*
X160138857Y-48284857D01*
X160138857Y-48427714D01*
X160186476Y-48522952D01*
X160234095Y-48570571D01*
X160329333Y-48618190D01*
X160710285Y-48618190D01*
X159186476Y-49094380D02*
X159757904Y-49094380D01*
X159472190Y-49094380D02*
X159472190Y-48094380D01*
X159567428Y-48237238D01*
X159662666Y-48332476D01*
X159757904Y-48380095D01*
X158234095Y-49094380D02*
X158805523Y-49094380D01*
X158519809Y-49094380D02*
X158519809Y-48094380D01*
X158615047Y-48237238D01*
X158710285Y-48332476D01*
X158805523Y-48380095D01*
X183641904Y-84902380D02*
X183641904Y-85711904D01*
X183594285Y-85807142D01*
X183546666Y-85854761D01*
X183451428Y-85902380D01*
X183260952Y-85902380D01*
X183165714Y-85854761D01*
X183118095Y-85807142D01*
X183070476Y-85711904D01*
X183070476Y-84902380D01*
X182689523Y-84902380D02*
X182070476Y-84902380D01*
X182403809Y-85283333D01*
X182260952Y-85283333D01*
X182165714Y-85330952D01*
X182118095Y-85378571D01*
X182070476Y-85473809D01*
X182070476Y-85711904D01*
X182118095Y-85807142D01*
X182165714Y-85854761D01*
X182260952Y-85902380D01*
X182546666Y-85902380D01*
X182641904Y-85854761D01*
X182689523Y-85807142D01*
X124610666Y-73478380D02*
X124944000Y-73002190D01*
X125182095Y-73478380D02*
X125182095Y-72478380D01*
X124801142Y-72478380D01*
X124705904Y-72526000D01*
X124658285Y-72573619D01*
X124610666Y-72668857D01*
X124610666Y-72811714D01*
X124658285Y-72906952D01*
X124705904Y-72954571D01*
X124801142Y-73002190D01*
X125182095Y-73002190D01*
X124229714Y-72573619D02*
X124182095Y-72526000D01*
X124086857Y-72478380D01*
X123848761Y-72478380D01*
X123753523Y-72526000D01*
X123705904Y-72573619D01*
X123658285Y-72668857D01*
X123658285Y-72764095D01*
X123705904Y-72906952D01*
X124277333Y-73478380D01*
X123658285Y-73478380D01*
X126428333Y-117049761D02*
X126285476Y-117097380D01*
X126047380Y-117097380D01*
X125952142Y-117049761D01*
X125904523Y-117002142D01*
X125856904Y-116906904D01*
X125856904Y-116811666D01*
X125904523Y-116716428D01*
X125952142Y-116668809D01*
X126047380Y-116621190D01*
X126237857Y-116573571D01*
X126333095Y-116525952D01*
X126380714Y-116478333D01*
X126428333Y-116383095D01*
X126428333Y-116287857D01*
X126380714Y-116192619D01*
X126333095Y-116145000D01*
X126237857Y-116097380D01*
X125999761Y-116097380D01*
X125856904Y-116145000D01*
X125523571Y-116097380D02*
X125285476Y-117097380D01*
X125095000Y-116383095D01*
X124904523Y-117097380D01*
X124666428Y-116097380D01*
X124333095Y-116192619D02*
X124285476Y-116145000D01*
X124190238Y-116097380D01*
X123952142Y-116097380D01*
X123856904Y-116145000D01*
X123809285Y-116192619D01*
X123761666Y-116287857D01*
X123761666Y-116383095D01*
X123809285Y-116525952D01*
X124380714Y-117097380D01*
X123761666Y-117097380D01*
X164194857Y-96695142D02*
X164242476Y-96742761D01*
X164385333Y-96790380D01*
X164480571Y-96790380D01*
X164623428Y-96742761D01*
X164718666Y-96647523D01*
X164766285Y-96552285D01*
X164813904Y-96361809D01*
X164813904Y-96218952D01*
X164766285Y-96028476D01*
X164718666Y-95933238D01*
X164623428Y-95838000D01*
X164480571Y-95790380D01*
X164385333Y-95790380D01*
X164242476Y-95838000D01*
X164194857Y-95885619D01*
X163242476Y-96790380D02*
X163813904Y-96790380D01*
X163528190Y-96790380D02*
X163528190Y-95790380D01*
X163623428Y-95933238D01*
X163718666Y-96028476D01*
X163813904Y-96076095D01*
X162766285Y-96742761D02*
X162766285Y-96790380D01*
X162813904Y-96885619D01*
X162861523Y-96933238D01*
X161052000Y-96790380D02*
X161623428Y-96790380D01*
X161337714Y-96790380D02*
X161337714Y-95790380D01*
X161432952Y-95933238D01*
X161528190Y-96028476D01*
X161623428Y-96076095D01*
X160194857Y-96123714D02*
X160194857Y-96790380D01*
X160623428Y-96123714D02*
X160623428Y-96647523D01*
X160575809Y-96742761D01*
X160480571Y-96790380D01*
X160337714Y-96790380D01*
X160242476Y-96742761D01*
X160194857Y-96695142D01*
X159385333Y-96266571D02*
X159718666Y-96266571D01*
X159718666Y-96790380D02*
X159718666Y-95790380D01*
X159242476Y-95790380D01*
X126896666Y-80082380D02*
X127230000Y-79606190D01*
X127468095Y-80082380D02*
X127468095Y-79082380D01*
X127087142Y-79082380D01*
X126991904Y-79130000D01*
X126944285Y-79177619D01*
X126896666Y-79272857D01*
X126896666Y-79415714D01*
X126944285Y-79510952D01*
X126991904Y-79558571D01*
X127087142Y-79606190D01*
X127468095Y-79606190D01*
X126563333Y-79082380D02*
X125944285Y-79082380D01*
X126277619Y-79463333D01*
X126134761Y-79463333D01*
X126039523Y-79510952D01*
X125991904Y-79558571D01*
X125944285Y-79653809D01*
X125944285Y-79891904D01*
X125991904Y-79987142D01*
X126039523Y-80034761D01*
X126134761Y-80082380D01*
X126420476Y-80082380D01*
X126515714Y-80034761D01*
X126563333Y-79987142D01*
X146122380Y-46617142D02*
X145646190Y-46283809D01*
X146122380Y-46045714D02*
X145122380Y-46045714D01*
X145122380Y-46426666D01*
X145170000Y-46521904D01*
X145217619Y-46569523D01*
X145312857Y-46617142D01*
X145455714Y-46617142D01*
X145550952Y-46569523D01*
X145598571Y-46521904D01*
X145646190Y-46426666D01*
X145646190Y-46045714D01*
X146122380Y-47569523D02*
X146122380Y-46998095D01*
X146122380Y-47283809D02*
X145122380Y-47283809D01*
X145265238Y-47188571D01*
X145360476Y-47093333D01*
X145408095Y-46998095D01*
X145217619Y-47950476D02*
X145170000Y-47998095D01*
X145122380Y-48093333D01*
X145122380Y-48331428D01*
X145170000Y-48426666D01*
X145217619Y-48474285D01*
X145312857Y-48521904D01*
X145408095Y-48521904D01*
X145550952Y-48474285D01*
X146122380Y-47902857D01*
X146122380Y-48521904D01*
X134262666Y-49602380D02*
X134596000Y-49126190D01*
X134834095Y-49602380D02*
X134834095Y-48602380D01*
X134453142Y-48602380D01*
X134357904Y-48650000D01*
X134310285Y-48697619D01*
X134262666Y-48792857D01*
X134262666Y-48935714D01*
X134310285Y-49030952D01*
X134357904Y-49078571D01*
X134453142Y-49126190D01*
X134834095Y-49126190D01*
X133310285Y-49602380D02*
X133881714Y-49602380D01*
X133596000Y-49602380D02*
X133596000Y-48602380D01*
X133691238Y-48745238D01*
X133786476Y-48840476D01*
X133881714Y-48888095D01*
X193874380Y-73525142D02*
X193398190Y-73191809D01*
X193874380Y-72953714D02*
X192874380Y-72953714D01*
X192874380Y-73334666D01*
X192922000Y-73429904D01*
X192969619Y-73477523D01*
X193064857Y-73525142D01*
X193207714Y-73525142D01*
X193302952Y-73477523D01*
X193350571Y-73429904D01*
X193398190Y-73334666D01*
X193398190Y-72953714D01*
X193874380Y-74477523D02*
X193874380Y-73906095D01*
X193874380Y-74191809D02*
X192874380Y-74191809D01*
X193017238Y-74096571D01*
X193112476Y-74001333D01*
X193160095Y-73906095D01*
X192874380Y-74810857D02*
X192874380Y-75477523D01*
X193874380Y-75048952D01*
X118498857Y-104718380D02*
X118832190Y-104242190D01*
X119070285Y-104718380D02*
X119070285Y-103718380D01*
X118689333Y-103718380D01*
X118594095Y-103766000D01*
X118546476Y-103813619D01*
X118498857Y-103908857D01*
X118498857Y-104051714D01*
X118546476Y-104146952D01*
X118594095Y-104194571D01*
X118689333Y-104242190D01*
X119070285Y-104242190D01*
X117546476Y-104718380D02*
X118117904Y-104718380D01*
X117832190Y-104718380D02*
X117832190Y-103718380D01*
X117927428Y-103861238D01*
X118022666Y-103956476D01*
X118117904Y-104004095D01*
X116689333Y-104051714D02*
X116689333Y-104718380D01*
X116927428Y-103670761D02*
X117165523Y-104385047D01*
X116546476Y-104385047D01*
X140136666Y-71192380D02*
X140470000Y-70716190D01*
X140708095Y-71192380D02*
X140708095Y-70192380D01*
X140327142Y-70192380D01*
X140231904Y-70240000D01*
X140184285Y-70287619D01*
X140136666Y-70382857D01*
X140136666Y-70525714D01*
X140184285Y-70620952D01*
X140231904Y-70668571D01*
X140327142Y-70716190D01*
X140708095Y-70716190D01*
X139279523Y-70192380D02*
X139470000Y-70192380D01*
X139565238Y-70240000D01*
X139612857Y-70287619D01*
X139708095Y-70430476D01*
X139755714Y-70620952D01*
X139755714Y-71001904D01*
X139708095Y-71097142D01*
X139660476Y-71144761D01*
X139565238Y-71192380D01*
X139374761Y-71192380D01*
X139279523Y-71144761D01*
X139231904Y-71097142D01*
X139184285Y-71001904D01*
X139184285Y-70763809D01*
X139231904Y-70668571D01*
X139279523Y-70620952D01*
X139374761Y-70573333D01*
X139565238Y-70573333D01*
X139660476Y-70620952D01*
X139708095Y-70668571D01*
X139755714Y-70763809D01*
X161725713Y-129994572D02*
X161582856Y-130042191D01*
X161535237Y-130089810D01*
X161487618Y-130185048D01*
X161487618Y-130327905D01*
X161535237Y-130423143D01*
X161582856Y-130470762D01*
X161678094Y-130518381D01*
X162059046Y-130518381D01*
X162059046Y-129518381D01*
X161725713Y-129518381D01*
X161630475Y-129566001D01*
X161582856Y-129613620D01*
X161535237Y-129708858D01*
X161535237Y-129804096D01*
X161582856Y-129899334D01*
X161630475Y-129946953D01*
X161725713Y-129994572D01*
X162059046Y-129994572D01*
X161201903Y-129518381D02*
X160630475Y-129518381D01*
X160916189Y-130518381D02*
X160916189Y-129518381D01*
X159773332Y-130518381D02*
X160344760Y-130518381D01*
X160059046Y-130518381D02*
X160059046Y-129518381D01*
X160154284Y-129661239D01*
X160249522Y-129756477D01*
X160344760Y-129804096D01*
X187602857Y-106498380D02*
X187936190Y-106022190D01*
X188174285Y-106498380D02*
X188174285Y-105498380D01*
X187793333Y-105498380D01*
X187698095Y-105546000D01*
X187650476Y-105593619D01*
X187602857Y-105688857D01*
X187602857Y-105831714D01*
X187650476Y-105926952D01*
X187698095Y-105974571D01*
X187793333Y-106022190D01*
X188174285Y-106022190D01*
X186650476Y-106498380D02*
X187221904Y-106498380D01*
X186936190Y-106498380D02*
X186936190Y-105498380D01*
X187031428Y-105641238D01*
X187126666Y-105736476D01*
X187221904Y-105784095D01*
X185793333Y-105498380D02*
X185983809Y-105498380D01*
X186079047Y-105546000D01*
X186126666Y-105593619D01*
X186221904Y-105736476D01*
X186269523Y-105926952D01*
X186269523Y-106307904D01*
X186221904Y-106403142D01*
X186174285Y-106450761D01*
X186079047Y-106498380D01*
X185888571Y-106498380D01*
X185793333Y-106450761D01*
X185745714Y-106403142D01*
X185698095Y-106307904D01*
X185698095Y-106069809D01*
X185745714Y-105974571D01*
X185793333Y-105926952D01*
X185888571Y-105879333D01*
X186079047Y-105879333D01*
X186174285Y-105926952D01*
X186221904Y-105974571D01*
X186269523Y-106069809D01*
X163067904Y-85452380D02*
X163067904Y-86261904D01*
X163020285Y-86357142D01*
X162972666Y-86404761D01*
X162877428Y-86452380D01*
X162686952Y-86452380D01*
X162591714Y-86404761D01*
X162544095Y-86357142D01*
X162496476Y-86261904D01*
X162496476Y-85452380D01*
X161496476Y-86452380D02*
X162067904Y-86452380D01*
X161782190Y-86452380D02*
X161782190Y-85452380D01*
X161877428Y-85595238D01*
X161972666Y-85690476D01*
X162067904Y-85738095D01*
X139525333Y-95674380D02*
X139525333Y-96388666D01*
X139572952Y-96531523D01*
X139668190Y-96626761D01*
X139811047Y-96674380D01*
X139906285Y-96674380D01*
X138525333Y-96674380D02*
X139096761Y-96674380D01*
X138811047Y-96674380D02*
X138811047Y-95674380D01*
X138906285Y-95817238D01*
X139001523Y-95912476D01*
X139096761Y-95960095D01*
X152042666Y-67382380D02*
X152376000Y-66906190D01*
X152614095Y-67382380D02*
X152614095Y-66382380D01*
X152233142Y-66382380D01*
X152137904Y-66430000D01*
X152090285Y-66477619D01*
X152042666Y-66572857D01*
X152042666Y-66715714D01*
X152090285Y-66810952D01*
X152137904Y-66858571D01*
X152233142Y-66906190D01*
X152614095Y-66906190D01*
X151709333Y-66382380D02*
X151042666Y-66382380D01*
X151471238Y-67382380D01*
X172870857Y-52902380D02*
X173204190Y-52426190D01*
X173442285Y-52902380D02*
X173442285Y-51902380D01*
X173061333Y-51902380D01*
X172966095Y-51950000D01*
X172918476Y-51997619D01*
X172870857Y-52092857D01*
X172870857Y-52235714D01*
X172918476Y-52330952D01*
X172966095Y-52378571D01*
X173061333Y-52426190D01*
X173442285Y-52426190D01*
X171918476Y-52902380D02*
X172489904Y-52902380D01*
X172204190Y-52902380D02*
X172204190Y-51902380D01*
X172299428Y-52045238D01*
X172394666Y-52140476D01*
X172489904Y-52188095D01*
X171299428Y-51902380D02*
X171204190Y-51902380D01*
X171108952Y-51950000D01*
X171061333Y-51997619D01*
X171013714Y-52092857D01*
X170966095Y-52283333D01*
X170966095Y-52521428D01*
X171013714Y-52711904D01*
X171061333Y-52807142D01*
X171108952Y-52854761D01*
X171204190Y-52902380D01*
X171299428Y-52902380D01*
X171394666Y-52854761D01*
X171442285Y-52807142D01*
X171489904Y-52711904D01*
X171537523Y-52521428D01*
X171537523Y-52283333D01*
X171489904Y-52092857D01*
X171442285Y-51997619D01*
X171394666Y-51950000D01*
X171299428Y-51902380D01*
X141160651Y-128535858D02*
X141311179Y-128539971D01*
X141534916Y-128621404D01*
X141608123Y-128698725D01*
X141636584Y-128759759D01*
X141648758Y-128865540D01*
X141616185Y-128955034D01*
X141538864Y-129028242D01*
X141477830Y-129056703D01*
X141372049Y-129068877D01*
X141176773Y-129048477D01*
X141070992Y-129060651D01*
X141009958Y-129089112D01*
X140932637Y-129162320D01*
X140900064Y-129251814D01*
X140912238Y-129357595D01*
X140940698Y-129418629D01*
X141013906Y-129495950D01*
X141237643Y-129577383D01*
X141388171Y-129581496D01*
X141685115Y-129740250D02*
X142250872Y-128881991D01*
X142185561Y-129618346D01*
X142608850Y-129012284D01*
X142490566Y-130033410D01*
X143682784Y-129403164D02*
X143145817Y-129207724D01*
X143414301Y-129305444D02*
X143072281Y-130245137D01*
X143031646Y-130078322D01*
X142974725Y-129956254D01*
X142901517Y-129878933D01*
X131246666Y-87702380D02*
X131580000Y-87226190D01*
X131818095Y-87702380D02*
X131818095Y-86702380D01*
X131437142Y-86702380D01*
X131341904Y-86750000D01*
X131294285Y-86797619D01*
X131246666Y-86892857D01*
X131246666Y-87035714D01*
X131294285Y-87130952D01*
X131341904Y-87178571D01*
X131437142Y-87226190D01*
X131818095Y-87226190D01*
X130389523Y-87035714D02*
X130389523Y-87702380D01*
X130627619Y-86654761D02*
X130865714Y-87369047D01*
X130246666Y-87369047D01*
X134182380Y-120047142D02*
X133706190Y-119713809D01*
X134182380Y-119475714D02*
X133182380Y-119475714D01*
X133182380Y-119856666D01*
X133230000Y-119951904D01*
X133277619Y-119999523D01*
X133372857Y-120047142D01*
X133515714Y-120047142D01*
X133610952Y-119999523D01*
X133658571Y-119951904D01*
X133706190Y-119856666D01*
X133706190Y-119475714D01*
X134182380Y-120523333D02*
X134182380Y-120713809D01*
X134134761Y-120809047D01*
X134087142Y-120856666D01*
X133944285Y-120951904D01*
X133753809Y-120999523D01*
X133372857Y-120999523D01*
X133277619Y-120951904D01*
X133230000Y-120904285D01*
X133182380Y-120809047D01*
X133182380Y-120618571D01*
X133230000Y-120523333D01*
X133277619Y-120475714D01*
X133372857Y-120428095D01*
X133610952Y-120428095D01*
X133706190Y-120475714D01*
X133753809Y-120523333D01*
X133801428Y-120618571D01*
X133801428Y-120809047D01*
X133753809Y-120904285D01*
X133706190Y-120951904D01*
X133610952Y-120999523D01*
X134134761Y-121475714D02*
X134182380Y-121475714D01*
X134277619Y-121428095D01*
X134325238Y-121380476D01*
X134182380Y-123190000D02*
X134182380Y-122618571D01*
X134182380Y-122904285D02*
X133182380Y-122904285D01*
X133325238Y-122809047D01*
X133420476Y-122713809D01*
X133468095Y-122618571D01*
X133182380Y-123809047D02*
X133182380Y-123904285D01*
X133230000Y-123999523D01*
X133277619Y-124047142D01*
X133372857Y-124094761D01*
X133563333Y-124142380D01*
X133801428Y-124142380D01*
X133991904Y-124094761D01*
X134087142Y-124047142D01*
X134134761Y-123999523D01*
X134182380Y-123904285D01*
X134182380Y-123809047D01*
X134134761Y-123713809D01*
X134087142Y-123666190D01*
X133991904Y-123618571D01*
X133801428Y-123570952D01*
X133563333Y-123570952D01*
X133372857Y-123618571D01*
X133277619Y-123666190D01*
X133230000Y-123713809D01*
X133182380Y-123809047D01*
X134182380Y-124570952D02*
X133182380Y-124570952D01*
X133801428Y-124666190D02*
X134182380Y-124951904D01*
X133515714Y-124951904D02*
X133896666Y-124570952D01*
D13*
X164365000Y-130275064D02*
X164365000Y-129820936D01*
X165835000Y-130275064D02*
X165835000Y-129820936D01*
X115543000Y-71892936D02*
X115543000Y-72347064D01*
X114073000Y-71892936D02*
X114073000Y-72347064D01*
D12*
X166834000Y-97829000D02*
X166834000Y-98034000D01*
X166834000Y-103339000D02*
X161334000Y-103339000D01*
X166834000Y-98034000D02*
X168584000Y-98034000D01*
X161334000Y-97829000D02*
X161334000Y-98129000D01*
X166834000Y-103339000D02*
X166834000Y-103039000D01*
X166834000Y-97829000D02*
X161334000Y-97829000D01*
X161334000Y-103339000D02*
X161334000Y-103039000D01*
D13*
X166359064Y-68861000D02*
X165904936Y-68861000D01*
X166359064Y-70331000D02*
X165904936Y-70331000D01*
X140832064Y-84555000D02*
X140377936Y-84555000D01*
X140832064Y-83085000D02*
X140377936Y-83085000D01*
X159723064Y-51027000D02*
X159268936Y-51027000D01*
X159723064Y-49557000D02*
X159268936Y-49557000D01*
X182880000Y-91635000D02*
X185080000Y-91635000D01*
X182880000Y-86165000D02*
X186480000Y-86165000D01*
X182880000Y-86165000D02*
X180680000Y-86165000D01*
X182880000Y-91635000D02*
X180680000Y-91635000D01*
X124671064Y-75411000D02*
X124216936Y-75411000D01*
X124671064Y-73941000D02*
X124216936Y-73941000D01*
X121595000Y-113145000D02*
X121595000Y-111645000D01*
X122845000Y-109145000D02*
X127345000Y-109145000D01*
X127345000Y-115645000D02*
X122845000Y-115645000D01*
X128595000Y-111645000D02*
X128595000Y-113145000D01*
X161340748Y-95398000D02*
X162763252Y-95398000D01*
X161340748Y-93578000D02*
X162763252Y-93578000D01*
X126957064Y-82015000D02*
X126502936Y-82015000D01*
X126957064Y-80545000D02*
X126502936Y-80545000D01*
X146585000Y-47032936D02*
X146585000Y-47487064D01*
X148055000Y-47032936D02*
X148055000Y-47487064D01*
X134323064Y-50065000D02*
X133868936Y-50065000D01*
X134323064Y-51535000D02*
X133868936Y-51535000D01*
X195807000Y-73940936D02*
X195807000Y-74395064D01*
X194337000Y-73940936D02*
X194337000Y-74395064D01*
X117628936Y-103351000D02*
X118083064Y-103351000D01*
X117628936Y-101881000D02*
X118083064Y-101881000D01*
X140197064Y-73125000D02*
X139742936Y-73125000D01*
X140197064Y-71655000D02*
X139742936Y-71655000D01*
D12*
X151639999Y-133466001D02*
X158239999Y-133466001D01*
X158239999Y-133466001D02*
X158239999Y-128366001D01*
X151639999Y-128366001D02*
X151639999Y-133466001D01*
X158248016Y-128363657D02*
G75*
G03*
X151639999Y-128366001I-3308016J11297656D01*
G01*
D13*
X187187064Y-106961000D02*
X186732936Y-106961000D01*
X187187064Y-108431000D02*
X186732936Y-108431000D01*
X162306000Y-85285000D02*
X164506000Y-85285000D01*
X162306000Y-79815000D02*
X160106000Y-79815000D01*
X162306000Y-79815000D02*
X164506000Y-79815000D01*
X162306000Y-85285000D02*
X158706000Y-85285000D01*
X136592000Y-97222000D02*
X136592000Y-97792000D01*
X136592000Y-104392000D02*
X136592000Y-104962000D01*
X141792000Y-97222000D02*
X136592000Y-97222000D01*
X136592000Y-101852000D02*
X136592000Y-102872000D01*
X143232000Y-97792000D02*
X141792000Y-97792000D01*
X141792000Y-97222000D02*
X141792000Y-97792000D01*
X141792000Y-104392000D02*
X141792000Y-104962000D01*
X136592000Y-99312000D02*
X136592000Y-100332000D01*
X141792000Y-104962000D02*
X136592000Y-104962000D01*
X141792000Y-101852000D02*
X141792000Y-102872000D01*
X141792000Y-99312000D02*
X141792000Y-100332000D01*
X152103064Y-69315000D02*
X151648936Y-69315000D01*
X152103064Y-67845000D02*
X151648936Y-67845000D01*
X172000936Y-50065000D02*
X172455064Y-50065000D01*
X172000936Y-51535000D02*
X172455064Y-51535000D01*
D12*
X139556941Y-133916618D02*
X141718234Y-134703264D01*
X133636877Y-131761891D02*
X133705281Y-131573953D01*
X135798170Y-132548537D02*
X133636877Y-131761891D01*
X143223123Y-130568617D02*
X143154719Y-130756555D01*
X135141766Y-127627244D02*
X143223123Y-130568617D01*
X135141766Y-127627244D02*
X135073362Y-127815182D01*
X141718234Y-134703264D02*
X141786638Y-134515326D01*
D13*
X131307064Y-89635000D02*
X130852936Y-89635000D01*
X131307064Y-88165000D02*
X130852936Y-88165000D01*
X131345000Y-122417064D02*
X131345000Y-121962936D01*
X132815000Y-122417064D02*
X132815000Y-121962936D01*
%LPC*%
D14*
X165100000Y-131048000D03*
X165100000Y-129048000D03*
D15*
X114808000Y-71120000D03*
X114808000Y-73120000D03*
D16*
X167734000Y-98679000D03*
X167734000Y-99949000D03*
X167734000Y-101219000D03*
X167734000Y-102489000D03*
X160434000Y-102489000D03*
X160434000Y-101219000D03*
X160434000Y-99949000D03*
X160434000Y-98679000D03*
D17*
X167132000Y-69596000D03*
X165132000Y-69596000D03*
X141605000Y-83820000D03*
X139605000Y-83820000D03*
X160496000Y-50292000D03*
X158496000Y-50292000D03*
D18*
X185742500Y-86625000D03*
X185742500Y-87275000D03*
X185742500Y-87925000D03*
X185742500Y-88575000D03*
X185742500Y-89225000D03*
X185742500Y-89875000D03*
X185742500Y-90525000D03*
X185742500Y-91175000D03*
X180017500Y-91175000D03*
X180017500Y-90525000D03*
X180017500Y-89875000D03*
X180017500Y-89225000D03*
X180017500Y-88575000D03*
X180017500Y-87925000D03*
X180017500Y-87275000D03*
X180017500Y-86625000D03*
D17*
X125444000Y-74676000D03*
X123444000Y-74676000D03*
D19*
X121845000Y-114645000D03*
X128345000Y-114645000D03*
X128345000Y-110145000D03*
X121845000Y-110145000D03*
D20*
X160489500Y-94488000D03*
X163614500Y-94488000D03*
D17*
X127730000Y-81280000D03*
X125730000Y-81280000D03*
D15*
X147320000Y-46260000D03*
X147320000Y-48260000D03*
D17*
X135096000Y-50800000D03*
X133096000Y-50800000D03*
D15*
X195072000Y-73168000D03*
X195072000Y-75168000D03*
D21*
X116856000Y-102616000D03*
X118856000Y-102616000D03*
D17*
X140970000Y-72390000D03*
X138970000Y-72390000D03*
D22*
X159339999Y-108966001D03*
X145339999Y-117066001D03*
X159339999Y-125166001D03*
D23*
X154939999Y-131066001D03*
D19*
X154939999Y-111066001D03*
D17*
X187960000Y-107696000D03*
X185960000Y-107696000D03*
D24*
X159443500Y-84825000D03*
X159443500Y-84175000D03*
X159443500Y-83525000D03*
X159443500Y-82875000D03*
X159443500Y-82225000D03*
X159443500Y-81575000D03*
X159443500Y-80925000D03*
X159443500Y-80275000D03*
X165168500Y-80275000D03*
X165168500Y-80925000D03*
X165168500Y-81575000D03*
X165168500Y-82225000D03*
X165168500Y-82875000D03*
X165168500Y-83525000D03*
X165168500Y-84175000D03*
X165168500Y-84825000D03*
D25*
X141717000Y-98552000D03*
X136667000Y-98552000D03*
X141717000Y-101092000D03*
X136667000Y-101092000D03*
X141717000Y-103632000D03*
X136667000Y-103632000D03*
D17*
X152876000Y-68580000D03*
X150876000Y-68580000D03*
D21*
X171228000Y-50800000D03*
X173228000Y-50800000D03*
D26*
X134577260Y-129762971D03*
X142282740Y-132567537D03*
D27*
X140309385Y-131849294D03*
D28*
X138430000Y-131165254D03*
X136550615Y-130481214D03*
D17*
X132080000Y-88900000D03*
X130080000Y-88900000D03*
D14*
X132080000Y-123190000D03*
X132080000Y-121190000D03*
M02*
